<svg xmlns="http://www.w3.org/2000/svg" width="22" height="22" viewBox="0 0 22 22" fill="none">
  <g clip-path="url(#clip0_5477_170)">
    <mask id="mask0_5477_170" style="mask-type:luminance" maskUnits="userSpaceOnUse" x="0" y="0" width="22" height="22">
      <path d="M0 6.48499e-05H21.9999V22H0V6.48499e-05Z" fill="white"/>
    </mask>
    <g mask="url(#mask0_5477_170)">
      <path d="M21.3203 19.1719V7.39062C21.3203 6.34235 20.4701 5.49219 19.4219 5.49219C18.374 5.49219 17.5235 6.34278 17.5234 7.39062V19.1719H21.3203Z" fill="#ECECF1" stroke="#1A2A44" stroke-width="0.5"/>
      <path d="M4.47656 19.1719V7.39062C4.47654 6.34235 3.6264 5.49219 2.57812 5.49219C1.53023 5.49219 0.679707 6.34278 0.679688 7.39062V19.1719H4.47656Z" fill="#ECECF1" stroke="#1A2A44" stroke-width="0.5"/>
      <path d="M17.0234 13.5859V8.92969H6.38281L6.67676 9.20996H6.67773L6.68652 9.21875C6.69256 9.2245 6.7013 9.2331 6.71289 9.24414C6.73653 9.26666 6.77152 9.30002 6.81641 9.34277C6.90626 9.42836 7.03664 9.55209 7.19727 9.70508C7.5188 10.0113 7.96351 10.4351 8.4541 10.9023C9.40381 11.8069 10.5271 12.8771 11.2715 13.5859H17.0234Z" fill="#7FE881" stroke="#1A2A44" stroke-width="0.5"/>
      <path d="M2.7002 21.3203H4.62695L9.77734 16.4141L4.97656 11.8418V19.4219H4.47656C4.47656 18.3736 3.62641 17.5234 2.57812 17.5234C1.52983 17.5234 0.679691 18.3736 0.679688 19.4219C0.679688 20.5109 1.62919 21.3201 2.7002 21.3203Z" fill="#76E2F8" stroke="#1A2A44" stroke-width="0.5"/>
      <path d="M19.4219 21.3203C20.4706 21.3203 21.3203 20.4706 21.3203 19.4219C21.3203 18.5612 20.7754 17.8785 20.0742 17.6328L19.9316 17.5898C18.7392 17.2817 17.6654 18.0956 17.5361 19.1982L17.5234 19.4219H17.0234V16.6641H13.6816L9.02539 21.3203H19.4219Z" fill="#76E2F8" stroke="#1A2A44" stroke-width="0.5"/>
      <path d="M8.31836 21.3203L13.4746 16.1641H17.0234V14.0859H11.0723L10.999 14.0166C10.2565 13.3095 9.09037 12.198 8.10938 11.2637C7.61878 10.7964 7.17408 10.3736 6.85254 10.0674C6.69185 9.91433 6.56157 9.7907 6.47168 9.70508C6.42674 9.66227 6.39183 9.62899 6.36816 9.60645C6.35662 9.59545 6.34786 9.58683 6.3418 9.58105L6.33301 9.57227H6.33203L5.6582 8.92969H4.97656V11.1514L10.3135 16.2334L10.5029 16.4141L10.3135 16.5947L5.35156 21.3203H8.31836Z" fill="#FED2A4" stroke="#1A2A44" stroke-width="0.5"/>
      <path d="M11.416 10.5938C11.6934 10.1969 12.0393 9.6893 12.4004 9.12695L12.7646 8.54883C13.2381 7.78168 13.7042 6.95836 14.0518 6.2002C14.4036 5.43267 14.6172 4.76501 14.6172 4.29688C14.6172 2.29899 12.9979 0.679694 11 0.679688C9.00211 0.679688 7.38282 2.29899 7.38281 4.29688C7.38281 4.76501 7.59644 5.43267 7.94824 6.2002C8.20893 6.76892 8.53646 7.37414 8.88379 7.96484L9.23535 8.54883C9.72249 9.33874 10.2142 10.0647 10.584 10.5938C10.7517 10.8336 10.8944 11.0329 11 11.1787C11.1056 11.0329 11.2484 10.8336 11.416 10.5938Z" fill="#FF637B" stroke="#1A2A44" stroke-width="0.5"/>
      <path d="M11 5.76562C11.8098 5.76562 12.4688 5.10669 12.4688 4.29688C12.4687 3.48706 11.8098 2.82813 11 2.82812C10.1902 2.82812 9.53125 3.48706 9.53125 4.29688C9.53125 5.10669 10.1902 5.76562 11 5.76562Z" fill="#ECECF1" stroke="#1A2A44" stroke-width="0.5"/>
      <path d="M0.429688 9.79688V7.39063C0.429688 6.79767 0.670312 6.26056 1.05918 5.87169C1.44804 5.48283 1.98515 5.2422 2.57812 5.2422C3.76448 5.2422 4.72655 6.20427 4.72655 7.39063V8.67969" stroke="#1A2A44" stroke-width="0.5" stroke-miterlimit="10" stroke-linecap="round" stroke-linejoin="round"/>
      <path d="M4.72655 11.2578V19.4219C4.72655 18.2355 3.76448 17.2734 2.57812 17.2734C1.39175 17.2734 0.429688 18.2355 0.429688 19.4219C0.429688 19.4949 0.433555 19.5688 0.440859 19.6436C0.552578 20.7616 1.57695 21.5703 2.70058 21.5703H4.72655" stroke="#1A2A44" stroke-width="0.5" stroke-miterlimit="10" stroke-linecap="round" stroke-linejoin="round"/>
      <path d="M8.42188 21.5703H19.4218C20.6086 21.5703 21.5703 20.6087 21.5703 19.4219" stroke="#1A2A44" stroke-width="0.5" stroke-miterlimit="10" stroke-linecap="round" stroke-linejoin="round"/>
      <path d="M17.2734 16.4141V19.4219C17.2734 18.049 18.5608 16.977 19.9942 17.3473C20.7178 17.5343 21.3095 18.1259 21.4964 18.8495C21.5467 19.0442 21.5703 19.2358 21.5703 19.4219V7.39066C21.5703 6.2043 20.6082 5.24223 19.4219 5.24223C18.8289 5.24223 18.2918 5.48285 17.9029 5.87172C17.5141 6.26059 17.2734 6.79769 17.2734 7.39066V13.836" stroke="#1A2A44" stroke-width="0.5" stroke-miterlimit="10" stroke-linecap="round" stroke-linejoin="round"/>
      <path d="M0.429688 13.2344V19.4219" stroke="#1A2A44" stroke-width="0.5" stroke-miterlimit="10" stroke-linecap="round" stroke-linejoin="round"/>
      <path d="M17.2735 8.67969H12.9771" stroke="#1A2A44" stroke-width="0.5" stroke-miterlimit="10" stroke-linecap="round" stroke-linejoin="round"/>
      <path d="M17.2734 13.836V16.4141H13.5781L8.42186 21.5703H4.72656L10.1406 16.4141L4.72656 11.2578V8.67973H5.75781L6.5046 9.39086C6.5046 9.39086 9.68682 12.4219 11.1719 13.836H11.8594H17.2734Z" stroke="#1A2A44" stroke-width="0.5" stroke-miterlimit="10" stroke-linecap="round" stroke-linejoin="round"/>
      <path d="M9.023 8.67969H5.75781" stroke="#1A2A44" stroke-width="0.5" stroke-miterlimit="10" stroke-linecap="round" stroke-linejoin="round"/>
      <path d="M12.977 8.6797C13.9292 7.13669 14.8672 5.3492 14.8672 4.2969C14.8672 2.16093 13.136 0.42972 11 0.42972C8.86402 0.42972 7.13281 2.16093 7.13281 4.2969C7.13281 5.3492 8.07082 7.13669 9.023 8.6797C10.004 10.2704 11 11.6016 11 11.6016C11 11.6016 11.996 10.2704 12.977 8.6797Z" stroke="#1A2A44" stroke-width="0.5" stroke-miterlimit="10" stroke-linecap="round" stroke-linejoin="round"/>
      <path d="M11 6.01562C11.9479 6.01562 12.7187 5.24477 12.7187 4.29688C12.7187 3.34899 11.9479 2.57814 11 2.57814C10.0521 2.57814 9.28125 3.34899 9.28125 4.29688C9.28125 5.24477 10.0521 6.01562 11 6.01562Z" stroke="#1A2A44" stroke-width="0.5" stroke-miterlimit="10" stroke-linecap="round" stroke-linejoin="round"/>
      <path d="M0.429688 11.6953C0.528803 11.6953 0.609375 11.6147 0.609375 11.5156C0.609374 11.4165 0.528802 11.3359 0.429688 11.3359C0.330572 11.3359 0.250001 11.4165 0.25 11.5156C0.25 11.6147 0.330572 11.6953 0.429688 11.6953Z" fill="#1A2A44" stroke="#1A2A44" stroke-width="0.5"/>
    </g>
  </g>
  <defs>
    <clipPath id="clip0_5477_170">
      <rect width="22" height="22" fill="white"/>
    </clipPath>
  </defs>
</svg>