<svg xmlns="http://www.w3.org/2000/svg" width="22" height="22" viewBox="0 0 22 22" fill="none">
  <g clip-path="url(#clip0_5477_196)">
    <path fill-rule="evenodd" clip-rule="evenodd" d="M12.6418 2.12609C13.912 2.35963 15.089 2.85927 16.1131 3.5649L17.4109 2.46228L19.5377 4.58911L18.4351 5.8868C19.1408 6.91092 19.6405 8.08797 19.8741 9.35821L21.5703 9.49609V12.5039L19.8743 12.6418C19.6406 13.912 19.1409 15.089 18.4351 16.1131L19.5378 17.4109L17.4109 19.5378L16.113 18.435C15.0889 19.1406 13.912 19.6404 12.6418 19.8739L12.5039 21.5703H9.49609L9.35821 19.8743C8.08801 19.6406 6.91092 19.1409 5.88689 18.4351L4.58906 19.5378L2.46224 17.4109L3.56499 16.113C2.85944 15.0889 2.35959 13.9121 2.12605 12.6419L0.429688 12.5039V9.49609L2.12575 9.35821C2.35937 8.08801 2.8591 6.91092 3.5649 5.88689L2.46224 4.58906L4.58906 2.46224L5.88702 3.56499C6.91114 2.85944 8.08801 2.35959 9.35816 2.12605L9.49609 0.429688H12.5039L12.6418 2.12609Z" fill="#BC9AF4"/>
    <path fill-rule="evenodd" clip-rule="evenodd" d="M13.6358 19.6317C13.3094 19.7313 12.9775 19.8122 12.6418 19.8739L12.5039 21.5703H9.49609L9.35821 19.8743C8.08797 19.6406 6.91096 19.1409 5.88689 18.4351L4.58906 19.5378L2.46224 17.4109L3.56499 16.113C2.85944 15.0889 2.35959 13.9121 2.12609 12.6419L0.429688 12.5039V9.49609L2.12575 9.35821C2.35937 8.08797 2.8591 6.91096 3.56486 5.88689L2.46224 4.58906L4.58906 2.46224L5.88702 3.56499C6.91118 2.85944 8.08796 2.35959 9.35816 2.12609L9.49609 0.429688H12.4262C10.2542 2.80762 8.92908 5.9724 8.92908 9.44681C8.92908 13.5263 10.7561 17.1786 13.6358 19.6317Z" fill="#6864F7"/>
    <path fill-rule="evenodd" clip-rule="evenodd" d="M10.9999 4.95996C14.3358 4.95996 17.0401 7.6642 17.0401 11.0001C17.0401 14.2394 14.4903 16.8828 11.2882 17.0333C6.04163 15.1966 5.53773 8.41843 9.64731 5.11211C10.091 5.01076 10.5448 4.95972 10.9999 4.95996Z" fill="white"/>
    <path fill-rule="evenodd" clip-rule="evenodd" d="M11.2886 17.0331C11.193 17.0376 11.0968 17.0401 11.0001 17.0401C7.66424 17.0401 4.95996 14.3358 4.95996 10.9999C4.95996 8.12891 6.96308 5.72588 9.64794 5.11182C9.18237 6.47135 8.92924 7.92941 8.92924 9.44672C8.9292 12.2641 9.80108 14.8773 11.2886 17.0331Z" fill="#D2DCFD"/>
    <path fill-rule="evenodd" clip-rule="evenodd" d="M11.0001 14.8831C13.1388 14.8831 14.8831 13.1388 14.8831 11.0001C14.8831 8.86146 13.1388 7.11719 11.0001 7.11719C8.86146 7.11719 7.11719 8.86146 7.11719 11.0001C7.11719 13.1388 8.86146 14.8831 11.0001 14.8831Z" fill="#67CCD1"/>
    <path fill-rule="evenodd" clip-rule="evenodd" d="M11.0001 14.8638C11.7486 14.8638 12.3592 13.1282 12.3592 11.0003C12.3592 8.87227 11.7487 7.13672 11.0001 7.13672C10.2516 7.13672 9.64111 8.87227 9.64111 11.0003C9.64111 13.1282 10.2516 14.8638 11.0001 14.8638Z" stroke="white" stroke-miterlimit="2.6131" stroke-linecap="round" stroke-linejoin="round"/>
    <path d="M7.45166 9.73828H14.5485M7.45166 12.2621H14.5485" stroke="white" stroke-miterlimit="22.9256" stroke-linecap="round" stroke-linejoin="round"/>
    <path fill-rule="evenodd" clip-rule="evenodd" d="M12.6418 2.12609C13.912 2.35963 15.089 2.85927 16.1131 3.5649L17.4109 2.46228L19.5377 4.58911L18.4351 5.8868C19.1408 6.91092 19.6405 8.08796 19.8741 9.35821L21.5703 9.49609V12.5039L19.8743 12.6418C19.6406 13.912 19.1409 15.089 18.4351 16.1131L19.5378 17.4109L17.4109 19.5378L16.113 18.435C15.0889 19.1406 13.912 19.6404 12.6418 19.8739L12.5039 21.5703H9.49609L9.35821 19.8743C8.08801 19.6406 6.91092 19.1409 5.88689 18.4351L4.58906 19.5378L2.46224 17.4109L3.56499 16.113C2.85944 15.0889 2.35959 13.9121 2.12605 12.6419L0.429688 12.5039V9.49609L2.12575 9.35821C2.35937 8.08801 2.8591 6.91092 3.5649 5.88689L2.46224 4.58906L4.58906 2.46224L5.88702 3.56499C6.91114 2.85944 8.08801 2.35959 9.35816 2.12605L9.49609 0.429688H12.5039L12.6418 2.12609Z" stroke="#052A75" stroke-miterlimit="2.6131" stroke-linecap="round" stroke-linejoin="round"/>
    <path fill-rule="evenodd" clip-rule="evenodd" d="M11.0001 14.8831C13.1388 14.8831 14.8831 13.1388 14.8831 11.0001C14.8831 8.86146 13.1388 7.11719 11.0001 7.11719C8.86146 7.11719 7.11719 8.86146 7.11719 11.0001C7.11719 13.1388 8.86146 14.8831 11.0001 14.8831Z" stroke="#052A75" stroke-miterlimit="2.6131" stroke-linecap="round" stroke-linejoin="round"/>
  </g>
  <defs>
    <clipPath id="clip0_5477_196">
      <rect width="22" height="22" fill="white"/>
    </clipPath>
  </defs>
</svg>