<svg xmlns="http://www.w3.org/2000/svg" width="22" height="22" viewBox="0 0 22 22" fill="none">
  <g clip-path="url(#clip0_5477_156)">
    <path fill-rule="evenodd" clip-rule="evenodd" d="M1.72399 3.66553H18.9817C19.6935 3.66553 20.276 4.24797 20.276 4.95983V15.3144C20.276 16.0263 19.6935 16.6087 18.9817 16.6087H1.72399C1.01213 16.6087 0.429688 16.0263 0.429688 15.3144V4.95983C0.429688 4.24797 1.01213 3.66553 1.72399 3.66553Z" fill="white"/>
    <path fill-rule="evenodd" clip-rule="evenodd" d="M20.2762 9.70457V15.3146C20.2762 16.0265 19.6938 16.6089 18.9819 16.6089H12.7812C12.6012 16.0514 12.5098 15.469 12.5103 14.8831C12.5103 11.7855 15.0213 9.27441 18.119 9.27441C18.8835 9.27441 19.6121 9.4276 20.2762 9.70457Z" fill="#D2DCFD"/>
    <path fill-rule="evenodd" clip-rule="evenodd" d="M4.99075 11.216C5.79276 11.216 6.44688 10.5618 6.44688 9.75984C6.44688 8.95782 5.79276 8.30371 4.99075 8.30371C4.18878 8.30371 3.53467 8.95782 3.53467 9.75984C3.53467 10.5618 4.18878 11.216 4.99075 11.216Z" fill="#FDBEB9"/>
    <path fill-rule="evenodd" clip-rule="evenodd" d="M2.80664 13.4C2.80664 12.1937 3.78452 11.2158 4.99079 11.2158C6.19705 11.2158 7.17493 12.1937 7.17493 13.4V14.128H2.80664V13.4Z" fill="#FD6050"/>
    <path fill-rule="evenodd" clip-rule="evenodd" d="M0.429688 5.82273H20.276V4.95983C20.276 4.24793 19.6936 3.66553 18.9817 3.66553H1.72399C1.01209 3.66553 0.429688 4.24793 0.429688 4.95983V5.82273Z" fill="#FDCB50"/>
    <path fill-rule="evenodd" clip-rule="evenodd" d="M18.119 18.3347C20.0201 18.3347 21.5705 16.7843 21.5705 14.8832C21.5705 12.9821 20.0201 11.4316 18.119 11.4316C16.218 11.4316 14.6675 12.9821 14.6675 14.8832C14.6675 16.7842 16.218 18.3347 18.119 18.3347Z" fill="#67CCD1"/>
    <path d="M9.60205 8.30371H17.899M9.60205 10.2452H13.7505M9.60205 12.1866H15.8473M9.60205 14.1281H14.4882" stroke="#6864F7" stroke-miterlimit="2.6131" stroke-linecap="round" stroke-linejoin="round"/>
    <path fill-rule="evenodd" clip-rule="evenodd" d="M18.1187 18.3173C18.784 18.3173 19.3267 16.7745 19.3267 14.883C19.3267 12.9914 18.784 11.4487 18.1187 11.4487C17.4533 11.4487 16.9106 12.9915 16.9106 14.883C16.9106 16.7745 17.4533 18.3173 18.1187 18.3173Z" stroke="#27A2CC" stroke-miterlimit="2.6131" stroke-linecap="round" stroke-linejoin="round"/>
    <path d="M14.8247 14.8828H21.4132" stroke="#27A2CC" stroke-miterlimit="22.9256" stroke-linecap="round" stroke-linejoin="round"/>
    <path fill-rule="evenodd" clip-rule="evenodd" d="M18.119 18.3347C20.0201 18.3347 21.5705 16.7843 21.5705 14.8832C21.5705 12.9821 20.0201 11.4316 18.119 11.4316C16.218 11.4316 14.6675 12.9821 14.6675 14.8832C14.6675 16.7842 16.218 18.3347 18.119 18.3347Z" stroke="#052A75" stroke-miterlimit="2.6131" stroke-linecap="round" stroke-linejoin="round"/>
    <path d="M14.9673 16.6087H1.72399C1.01213 16.6087 0.429688 16.0263 0.429688 15.3144V4.95983C0.429688 4.24793 1.01209 3.66553 1.72399 3.66553H18.9817C19.6936 3.66553 20.276 4.24797 20.276 4.95983V12.0324" stroke="#052A75" stroke-miterlimit="2.6131" stroke-linecap="round" stroke-linejoin="round"/>
  </g>
  <defs>
    <clipPath id="clip0_5477_156">
      <rect width="22" height="22" fill="white"/>
    </clipPath>
  </defs>
</svg>