<svg width="24" height="24" viewBox="0 0 24 24" fill="none" xmlns="http://www.w3.org/2000/svg">
<g id="la:facebook">
<path id="Vector_88" d="M12 1C5.93533 1 1 5.93533 1 12C1 18.0647 5.93533 23 12 23C18.0647 23 23 18.0647 23 12C23 5.93533 18.0647 1 12 1ZM12 2.83333C17.0737 2.83333 21.1667 6.92625 21.1667 12C21.1683 14.1943 20.3812 16.3161 18.9489 17.9785C17.5166 19.6408 15.5344 20.733 13.364 21.0557V14.673H15.9747L16.3844 12.0211H13.364V10.5728C13.364 9.47275 13.7261 8.49467 14.7555 8.49467H16.4101V6.181C16.1195 6.14158 15.5044 6.05633 14.3421 6.05633C11.9148 6.05633 10.4921 7.33783 10.4921 10.2583V12.0211H7.99692V14.673H10.4921V21.0328C8.35144 20.6805 6.4058 19.5785 5.0028 17.9238C3.5998 16.2691 2.83085 14.1694 2.83333 12C2.83333 6.92625 6.92625 2.83333 12 2.83333Z" fill="#494951"/>
</g>
</svg>
