<svg xmlns="http://www.w3.org/2000/svg" width="20" height="20" viewBox="0 0 20 20" fill="none">
<path d="M5.33325 3.96667C6.57518 2.74958 8.24725 2.07178 9.98611 2.08056C11.725 2.08934 13.3901 2.784 14.6197 4.01357C15.8493 5.24314 16.5439 6.90828 16.5527 8.64714C16.5615 10.386 15.8837 12.0581 14.6666 13.3L11.1782 16.7883C10.8657 17.1008 10.4419 17.2763 9.99991 17.2763C9.55797 17.2763 9.13413 17.1008 8.82158 16.7883L5.33325 13.3C4.09565 12.0623 3.40039 10.3836 3.40039 8.63333C3.40039 6.88302 4.09565 5.20439 5.33325 3.96667Z" stroke="#494951" stroke-width="1.2" stroke-linejoin="round"/>
<path d="M10 11.1333C11.3807 11.1333 12.5 10.014 12.5 8.63333C12.5 7.25262 11.3807 6.13333 10 6.13333C8.61929 6.13333 7.5 7.25262 7.5 8.63333C7.5 10.014 8.61929 11.1333 10 11.1333Z" stroke="#494951" stroke-width="1.2" stroke-linecap="round" stroke-linejoin="round"/>
</svg>