<svg xmlns="http://www.w3.org/2000/svg" width="16" height="17" viewBox="0 0 16 17" fill="none">
  <g clip-path="url(#clip0_5520_311)">
    <path d="M5.14286 3.3778C5.14286 2.61456 5.44388 1.88258 5.9797 1.34289C6.51551 0.803196 7.24224 0.5 8 0.5C8.75776 0.5 9.48449 0.803196 10.0203 1.34289C10.5561 1.88258 10.8571 2.61456 10.8571 3.3778V9.65141C11.4084 10.2181 11.7813 10.9361 11.929 11.7153C12.0767 12.4946 11.9928 13.3005 11.6877 14.0318C11.3825 14.7632 10.8698 15.3876 10.2138 15.8267C9.55777 16.2658 8.78765 16.5 8 16.5C7.21235 16.5 6.44223 16.2658 5.78621 15.8267C5.13019 15.3876 4.61747 14.7632 4.31234 14.0318C4.00721 13.3005 3.92326 12.4946 4.071 11.7153C4.21875 10.9361 4.59162 10.2181 5.14286 9.65141V3.3778ZM8 1.65112C7.54534 1.65112 7.10931 1.83304 6.78782 2.15685C6.46633 2.48067 6.28572 2.91986 6.28572 3.3778V10.1545L6.096 10.3271C5.66466 10.7157 5.3606 11.2269 5.22408 11.7933C5.08756 12.3597 5.12501 12.9545 5.33146 13.499C5.53792 14.0435 5.90365 14.512 6.38027 14.8426C6.85688 15.1731 7.42191 15.3501 8.00057 15.3501C8.57924 15.3501 9.14426 15.1731 9.62087 14.8426C10.0975 14.512 10.4632 14.0435 10.6697 13.499C10.8761 12.9545 10.9136 12.3597 10.7771 11.7933C10.6405 11.2269 10.3365 10.7157 9.90514 10.3271L9.71428 10.1533V3.3778C9.71428 2.91986 9.53367 2.48067 9.21218 2.15685C8.89069 1.83304 8.45466 1.65112 8 1.65112ZM8.57143 6.25561C8.57143 6.10296 8.51122 5.95656 8.40406 5.84862C8.2969 5.74069 8.15155 5.68005 8 5.68005C7.84845 5.68005 7.7031 5.74069 7.59594 5.84862C7.48878 5.95656 7.42857 6.10296 7.42857 6.25561V10.9579C7.04731 11.0937 6.72597 11.3609 6.52135 11.7122C6.31674 12.0635 6.24202 12.4764 6.3104 12.8779C6.37879 13.2793 6.58587 13.6435 6.89505 13.906C7.20423 14.1686 7.59561 14.3126 8 14.3126C8.40439 14.3126 8.79577 14.1686 9.10495 13.906C9.41413 13.6435 9.62121 13.2793 9.6896 12.8779C9.75798 12.4764 9.68326 12.0635 9.47865 11.7122C9.27403 11.3609 8.95269 11.0937 8.57143 10.9579V6.25561Z" fill="#494951"/>
  </g>
  <defs>
    <clipPath id="clip0_5520_311">
      <rect width="16" height="16" fill="white" transform="translate(0 0.5)"/>
    </clipPath>
  </defs>
</svg>