<svg width="24" height="24" viewBox="0 0 24 24" fill="none" xmlns="http://www.w3.org/2000/svg">
<g id="mingcute:ins-line" clip-path="url(#clip0_5304_123)">
<g id="Group_18">
<path id="Vector_85" fill-rule="evenodd" clip-rule="evenodd" d="M17.1529 0C18.8613 0 20.4996 0.678627 21.7076 1.88659C22.9155 3.09455 23.5942 4.7329 23.5942 6.44122V16.7472C23.5942 18.4555 22.9155 20.0938 21.7076 21.3018C20.4996 22.5098 18.8613 23.1884 17.1529 23.1884H6.84698C5.13867 23.1884 3.50032 22.5098 2.29235 21.3018C1.08439 20.0938 0.405762 18.4555 0.405762 16.7472V6.44122C0.405762 4.7329 1.08439 3.09455 2.29235 1.88659C3.50032 0.678627 5.13867 0 6.84698 0H17.1529ZM17.1529 2.57649H6.84698C5.82199 2.57649 4.83898 2.98367 4.11421 3.70844C3.38943 4.43322 2.98225 5.41623 2.98225 6.44122V16.7472C2.98225 17.7722 3.38943 18.7552 4.11421 19.48C4.83898 20.2047 5.82199 20.6119 6.84698 20.6119H17.1529C18.1779 20.6119 19.1609 20.2047 19.8857 19.48C20.6105 18.7552 21.0177 17.7722 21.0177 16.7472V6.44122C21.0177 5.41623 20.6105 4.43322 19.8857 3.70844C19.1609 2.98367 18.1779 2.57649 17.1529 2.57649ZM12 6.44122C13.3666 6.44122 14.6773 6.98412 15.6437 7.95049C16.61 8.91687 17.1529 10.2275 17.1529 11.5942C17.1529 12.9609 16.61 14.2715 15.6437 15.2379C14.6773 16.2043 13.3666 16.7472 12 16.7472C10.6333 16.7472 9.32263 16.2043 8.35626 15.2379C7.38989 14.2715 6.84698 12.9609 6.84698 11.5942C6.84698 10.2275 7.38989 8.91687 8.35626 7.95049C9.32263 6.98412 10.6333 6.44122 12 6.44122ZM12 9.01771C11.3166 9.01771 10.6613 9.28916 10.1781 9.77235C9.69492 10.2555 9.42347 10.9109 9.42347 11.5942C9.42347 12.2775 9.69492 12.9329 10.1781 13.4161C10.6613 13.8992 11.3166 14.1707 12 14.1707C12.6833 14.1707 13.3386 13.8992 13.8218 13.4161C14.305 12.9329 14.5765 12.2775 14.5765 11.5942C14.5765 10.9109 14.305 10.2555 13.8218 9.77235C13.3386 9.28916 12.6833 9.01771 12 9.01771ZM17.7971 4.50886C18.1387 4.50886 18.4664 4.64458 18.708 4.88617C18.9496 5.12777 19.0853 5.45544 19.0853 5.7971C19.0853 6.13876 18.9496 6.46643 18.708 6.70803C18.4664 6.94962 18.1387 7.08534 17.7971 7.08534C17.4554 7.08534 17.1277 6.94962 16.8861 6.70803C16.6445 6.46643 16.5088 6.13876 16.5088 5.7971C16.5088 5.45544 16.6445 5.12777 16.8861 4.88617C17.1277 4.64458 17.4554 4.50886 17.7971 4.50886Z" fill="#494951"/>
</g>
</g>
<defs>
<clipPath id="clip0_5304_123">
<rect width="24" height="24" fill="white"/>
</clipPath>
</defs>
</svg>
