<svg width="140" height="140" viewBox="0 0 140 140" fill="none" xmlns="http://www.w3.org/2000/svg" class="cmp-icon__image"><g clip-path="url(#clip0_13291_203790)"><path d="M3.32999 47.9304L41.26 29.8604L77.67 106.55L39.6 124.89L3.32999 47.9304Z" stroke="#B1AFAC" stroke-width="2" stroke-linecap="square"></path> <path d="M120.89 61.5898L135.37 90.9598L103.92 112.11L68.25 122.59L63.65 113.95" stroke="#B1AFAC" stroke-width="2" stroke-linecap="square"></path> <path d="M45.81 39.28L67.33 35.05L98.41 14.46L101.27 20.18" stroke="#B1AFAC" stroke-width="2" stroke-linecap="square"></path> <path d="M67.33 35.0498L103.92 112.11" stroke="#B1AFAC" stroke-width="2" stroke-linecap="square"></path> <path d="M69.44 121.349L78.16 107.729" stroke="#B1AFAC" stroke-width="2" stroke-linecap="square"></path> <path fill-rule="evenodd" clip-rule="evenodd" d="M130.64 21.4198C122.66 13.7598 109.71 13.7598 101.73 21.4198C94.38 28.4698 93.72 39.6898 100.19 47.4898L116.19 66.7798L132.19 47.4898C138.66 39.6898 138 28.4698 130.65 21.4198H130.64ZM116.19 41.2298C119.95 41.2298 123 38.1798 123 34.4198C123 30.6598 119.95 27.6098 116.19 27.6098C112.43 27.6098 109.38 30.6598 109.38 34.4198C109.38 38.1798 112.43 41.2298 116.19 41.2298Z" stroke="#00627B" stroke-width="2" stroke-linecap="square" stroke-linejoin="round"></path></g> <defs><clipPath id="clip0_13291_203790"><rect width="135.63" height="113.23" fill="white" transform="translate(2 13)"></rect></clipPath></defs></svg>