<svg width="140" height="140" viewBox="0 0 140 140" fill="none" xmlns="http://www.w3.org/2000/svg" class="cmp-icon__image"><path d="M61.11 83.6597L50.75 75.7497C52.15 73.7497 53.05 71.0497 53.05 69.0797V25.5597C53.05 22.0397 50.19 16.1797 46.67 16.1797C43.15 16.1797 40.29 22.0397 40.29 25.5597V69.0797C40.29 71.0497 41.18 73.7497 42.59 75.7497L32.23 83.6597V90.6097L43.41 86.0797L46.67 93.5997L49.93 86.0797L61.11 90.6097V83.6597V83.6597Z" stroke="#00627B" stroke-width="2" stroke-linecap="square" stroke-linejoin="round"></path> <path d="M43.4 86.0703V81.0303" stroke="#00627B" stroke-width="2" stroke-linecap="square" stroke-linejoin="round"></path> <path d="M40.15 41.4297L11 54.7797V69.2197" stroke="#00627B" stroke-width="2" stroke-linecap="square" stroke-linejoin="round"></path> <path d="M40.15 58.8701L14.81 64.4501" stroke="#00627B" stroke-width="2" stroke-linecap="square" stroke-linejoin="round"></path> <path d="M53.18 41.4297L82.33 54.7797V69.2197" stroke="#00627B" stroke-width="2" stroke-linecap="square" stroke-linejoin="round"></path> <path d="M53.18 58.8701L78.52 64.4501" stroke="#00627B" stroke-width="2" stroke-linecap="square" stroke-linejoin="round"></path> <path d="M74.69 44.6997L89.95 17.5897C89.95 17.5897 93.49 11.7297 98.67 12.0097C103.85 12.2897 106.16 15.5497 108.48 21.6797C110.8 27.8097 119.51 27.9497 121.69 30.5297C123.87 33.1097 128.64 37.6097 122.64 47.8297C116.64 58.0497 118.42 64.1797 121.69 70.9897C124.96 77.7997 133.27 87.0597 124.82 102.46C116.37 117.85 94.31 125.89 89.81 126.84C85.31 127.79 73.6 128.2 70.33 114.44C67.06 100.68 69.92 83.5197 68.42 69.2197" stroke="#B1AFAC" stroke-width="2" stroke-linecap="square" stroke-linejoin="round"></path></svg>