<svg width="44" height="44" viewBox="0 0 44 44" fill="none" xmlns="http://www.w3.org/2000/svg">
<g id="Frame" clip-path="url(#clip0_6223_1536)">
<g id="Group">
<path id="Vector" d="M35.7491 3.08377L31.9563 0.457947C31.197 1.28922 29.9218 1.4525 28.9704 0.793876L9.96484 28.2458C10.9162 28.9044 11.2122 30.1555 10.7014 31.1587L14.4942 33.7845C15.2534 32.9532 16.5287 32.79 17.48 33.4486C18.4313 34.1072 18.7274 35.3583 18.2166 36.3615L22.0093 38.9873C22.7686 38.1561 24.0438 37.9928 24.9951 38.6514L44.0007 11.1994C43.0494 10.5408 42.7533 9.28974 43.2642 8.28651L39.4714 5.66069C38.7121 6.49196 37.4369 6.65524 36.4856 5.99662C35.5343 5.33808 35.2383 4.08692 35.7491 3.08377Z" fill="#F2CC7B"/>
<path id="Vector_2" d="M37.2891 16.3049L24.3147 35.0464L13.5777 27.6135L26.5521 8.87188L37.2891 16.3049Z" fill="#F25F60"/>
<path id="Vector_3" d="M22.0312 19.6047L25.2142 20.5594L27.1058 17.8271L27.1814 21.1493L30.3644 22.1041L27.2282 23.2026L27.3038 26.5248L25.2898 23.8815L22.1536 24.9802L24.0452 22.2479L22.0312 19.6047Z" fill="#F2F2F2"/>
<path id="Vector_4" d="M21.2064 38.4317L28.3972 7.78764L26.15 7.26033L26.3409 5.27577L25.9338 5.1803L9.96484 28.2458C10.9162 28.9044 11.2122 30.1555 10.7014 31.1587L14.4943 33.7845C15.2534 32.9532 16.5288 32.79 17.4801 33.4486C18.4314 34.1072 18.7275 35.3583 18.2166 36.3615L21.2064 38.4317Z" fill="black"/>
<path id="Vector_5" d="M14.774 5.1006L10.283 4.04675C9.88109 5.09828 8.75428 5.71746 7.6279 5.45312L0 37.9591C1.12638 38.2235 1.86029 39.2791 1.75252 40.3999L6.24353 41.4537C6.64546 40.4022 7.77227 39.783 8.89866 40.0473C10.025 40.3117 10.7589 41.3673 10.6512 42.4881L15.1422 43.5419C15.5441 42.4904 16.6709 41.8712 17.7973 42.1355L25.425 9.6296C24.2987 9.36534 23.5648 8.3096 23.6725 7.18889L19.1816 6.13503C18.7797 7.18657 17.6529 7.80574 16.5265 7.5414C15.4 7.27689 14.6663 6.22132 14.774 5.1006Z" fill="#FFD782"/>
<path id="Vector_6" d="M7.96152 11.2679C7.90426 11.2679 7.84719 11.2613 7.79145 11.2482L6.34753 10.9093C6.25271 10.8871 6.16321 10.8464 6.08413 10.7896C6.00504 10.7327 5.93793 10.6609 5.88663 10.5781C5.83532 10.4953 5.80082 10.4033 5.78511 10.3072C5.76939 10.211 5.77277 10.1128 5.79504 10.018C5.81728 9.92317 5.85798 9.83368 5.91481 9.7546C5.97164 9.67552 6.0435 9.60841 6.12627 9.55711C6.20904 9.50581 6.30111 9.47131 6.39721 9.45559C6.49331 9.43987 6.59158 9.44323 6.68638 9.46549L8.1303 9.80434C8.22511 9.82657 8.31462 9.86727 8.3937 9.9241C8.47278 9.98093 8.5399 10.0528 8.5912 10.1356C8.64251 10.2183 8.67701 10.3104 8.69272 10.4065C8.70844 10.5026 8.70506 10.6009 8.68279 10.6957C8.60279 11.0373 8.29797 11.2679 7.96152 11.2679ZM19.8892 14.0668C19.832 14.0667 19.7749 14.0601 19.7191 14.047L16.7372 13.3472C16.6424 13.325 16.5529 13.2843 16.4738 13.2274C16.3947 13.1706 16.3276 13.0988 16.2763 13.016C16.225 12.9332 16.1905 12.8411 16.1748 12.745C16.1591 12.6489 16.1624 12.5507 16.1847 12.4559C16.2069 12.361 16.2476 12.2715 16.3044 12.1924C16.3613 12.1133 16.4331 12.0462 16.5159 11.9949C16.5987 11.9436 16.6908 11.9091 16.7869 11.8934C16.883 11.8777 16.9812 11.8811 17.0761 11.9034L20.058 12.6032C20.1528 12.6254 20.2423 12.6661 20.3214 12.7229C20.4005 12.7797 20.4676 12.8516 20.5189 12.9344C20.5702 13.0171 20.6047 13.1092 20.6204 13.2053C20.6361 13.3014 20.6328 13.3997 20.6105 13.4945C20.5305 13.8362 20.2257 14.0668 19.8892 14.0668ZM13.9254 12.6673C13.8682 12.6673 13.8111 12.6607 13.7553 12.6476L10.7734 11.9478C10.6786 11.9256 10.5891 11.8849 10.51 11.828C10.4309 11.7712 10.3638 11.6994 10.3125 11.6166C10.2612 11.5338 10.2267 11.4417 10.211 11.3456C10.1953 11.2495 10.1986 11.1513 10.2209 11.0565C10.2431 10.9616 10.2838 10.8721 10.3406 10.793C10.3975 10.7139 10.4693 10.6468 10.5521 10.5955C10.6349 10.5442 10.7269 10.5097 10.8231 10.494C10.9192 10.4783 11.0174 10.4817 11.1122 10.504L14.0942 11.2037C14.189 11.226 14.2785 11.2667 14.3576 11.3235C14.4367 11.3803 14.5038 11.4522 14.5551 11.535C14.6064 11.6177 14.6409 11.7098 14.6566 11.8059C14.6723 11.902 14.669 12.0003 14.6467 12.0951C14.5666 12.4368 14.2619 12.6673 13.9254 12.6673ZM24.3151 15.1054C24.2578 15.1053 24.2008 15.0987 24.145 15.0856L22.7011 14.7468C22.6063 14.7245 22.5168 14.6839 22.4377 14.627C22.3586 14.5702 22.2915 14.4983 22.2402 14.4156C22.1889 14.3328 22.1544 14.2407 22.1387 14.1446C22.123 14.0485 22.1263 13.9502 22.1486 13.8554C22.1708 13.7606 22.2115 13.6711 22.2684 13.5921C22.3252 13.513 22.3971 13.4459 22.4798 13.3946C22.5626 13.3433 22.6547 13.3088 22.7508 13.293C22.8469 13.2773 22.9451 13.2807 23.0399 13.3029L24.4839 13.6418C24.5787 13.664 24.6682 13.7047 24.7473 13.7615C24.8263 13.8184 24.8935 13.8902 24.9448 13.973C24.9961 14.0558 25.0306 14.1479 25.0463 14.244C25.062 14.3401 25.0586 14.4383 25.0364 14.5331C24.9563 14.8748 24.6516 15.1054 24.3151 15.1054Z" fill="#FF6465"/>
<path id="Vector_7" d="M21.0566 16.8401L15.8478 39.0326L3.1338 36.0484L8.34266 13.856L21.0566 16.8401Z" fill="#FF6465"/>
<path id="Vector_8" d="M8.06445 25.4979L11.3758 25.2201L12.1351 21.985L13.4224 25.0485L16.7338 24.7707L14.2181 26.9419L15.5054 30.0054L12.6632 28.2837L10.1475 30.4548L10.9067 27.2196L8.06445 25.4979Z" fill="white"/>
<path id="Vector_9" d="M27.4213 6.37779C27.2707 6.3779 27.1236 6.33186 26.9999 6.24587L25.7804 5.40162C25.7003 5.34619 25.632 5.27553 25.5792 5.19368C25.5264 5.11182 25.4903 5.02037 25.4729 4.92455C25.4555 4.82874 25.4571 4.73043 25.4777 4.63524C25.4983 4.54005 25.5374 4.44984 25.5928 4.36977C25.6482 4.2897 25.7189 4.22133 25.8008 4.16856C25.8826 4.1158 25.9741 4.07967 26.0699 4.06225C26.1657 4.04483 26.264 4.04646 26.3592 4.06703C26.4544 4.08761 26.5446 4.12673 26.6247 4.18217L27.8441 5.02642C27.9742 5.1164 28.072 5.24559 28.1234 5.39513C28.1749 5.54468 28.1771 5.70674 28.1299 5.85766C28.0827 6.00859 27.9885 6.14046 27.861 6.23403C27.7335 6.3276 27.5794 6.37797 27.4213 6.37779ZM37.4945 13.3517C37.3438 13.3518 37.1968 13.3057 37.073 13.2198L34.5547 11.4763C34.4746 11.4209 34.4063 11.3502 34.3535 11.2684C34.3008 11.1865 34.2646 11.0951 34.2472 10.9993C34.2298 10.9035 34.2314 10.8051 34.252 10.71C34.2726 10.6148 34.3117 10.5246 34.3671 10.4445C34.4225 10.3644 34.4932 10.2961 34.5751 10.2433C34.6569 10.1905 34.7484 10.1544 34.8442 10.137C34.94 10.1196 35.0383 10.1212 35.1335 10.1418C35.2287 10.1624 35.3189 10.2015 35.399 10.2569L37.9173 12.0004C38.0473 12.0904 38.1452 12.2196 38.1967 12.3691C38.2481 12.5187 38.2504 12.6807 38.2031 12.8317C38.1559 12.9826 38.0617 13.1144 37.9342 13.208C37.8067 13.3016 37.6526 13.3519 37.4945 13.3517ZM32.4579 9.8647C32.3073 9.86477 32.1602 9.81874 32.0365 9.73279L29.5182 7.98929C29.4381 7.93386 29.3697 7.86321 29.317 7.78136C29.2642 7.69951 29.2281 7.60807 29.2107 7.51226C29.1933 7.41645 29.1949 7.31815 29.2154 7.22297C29.236 7.12778 29.2751 7.03758 29.3306 6.95752C29.386 6.87745 29.4567 6.80908 29.5385 6.75631C29.6204 6.70355 29.7118 6.66742 29.8077 6.65C29.9035 6.63258 30.0018 6.63421 30.097 6.65478C30.1922 6.67536 30.2824 6.71448 30.3624 6.76992L32.8807 8.51342C33.0107 8.60341 33.1086 8.7326 33.16 8.88213C33.2114 9.03165 33.2136 9.19369 33.1664 9.34459C33.1192 9.49549 33.025 9.62735 32.8975 9.72091C32.7701 9.81448 32.616 9.86486 32.4579 9.8647ZM41.2322 15.9395C41.0815 15.9395 40.9344 15.8935 40.8107 15.8075L39.5913 14.9633C39.5112 14.9079 39.4428 14.8372 39.3901 14.7553C39.3373 14.6735 39.3012 14.582 39.2837 14.4862C39.2663 14.3904 39.2679 14.2921 39.2885 14.1969C39.3091 14.1017 39.3482 14.0115 39.4037 13.9314C39.4591 13.8514 39.5297 13.783 39.6116 13.7302C39.6935 13.6775 39.7849 13.6413 39.8807 13.6239C39.9765 13.6065 40.0749 13.6081 40.17 13.6287C40.2652 13.6493 40.3554 13.6884 40.4355 13.7438L41.655 14.5881C41.785 14.6781 41.8829 14.8073 41.9343 14.9568C41.9857 15.1063 41.988 15.2684 41.9407 15.4193C41.8935 15.5702 41.7993 15.7021 41.6718 15.7957C41.5443 15.8893 41.3903 15.9396 41.2322 15.9395Z" fill="#F25F60"/>
</g>
</g>
<defs>
<clipPath id="clip0_6223_1536">
<rect width="44" height="44" fill="white"/>
</clipPath>
</defs>
</svg>
