<svg width="140" height="140" viewBox="0 0 140 140" fill="none" xmlns="http://www.w3.org/2000/svg" class="cmp-icon__image"><path d="M102.55 84.71H104.9V86.32H102.55V84.71Z" stroke="#B1AFAC" stroke-width="2" stroke-linecap="square" stroke-linejoin="round"></path> <path d="M107.61 84.71H109.96V86.32H107.61V84.71Z" stroke="#B1AFAC" stroke-width="2" stroke-linecap="square" stroke-linejoin="round"></path> <path d="M102.55 94.0996H104.9V95.7096H102.55V94.0996Z" stroke="#B1AFAC" stroke-width="2" stroke-linecap="square" stroke-linejoin="round"></path> <path d="M107.61 94.0996H109.96V95.7096H107.61V94.0996Z" stroke="#B1AFAC" stroke-width="2" stroke-linecap="square" stroke-linejoin="round"></path> <path d="M102.55 103.5H104.9V105.11H102.55V103.5Z" stroke="#B1AFAC" stroke-width="2" stroke-linecap="square" stroke-linejoin="round"></path> <path d="M107.61 103.5H109.96V105.11H107.61V103.5Z" stroke="#B1AFAC" stroke-width="2" stroke-linecap="square" stroke-linejoin="round"></path> <path d="M82.25 94.9004H93.25" stroke="#B1AFAC" stroke-width="2" stroke-linecap="square" stroke-linejoin="round"></path> <path d="M93.28 130.06V70.3801C93.28 54.7101 105.76 53.8501 106.15 53.8301H106.23C106.47 53.8501 109.64 54.1101 112.8 56.2701C116.98 59.1301 119.1 63.8801 119.1 70.3901V130.08" stroke="#B1AFAC" stroke-width="2" stroke-linecap="square" stroke-linejoin="round"></path> <path d="M106.22 53.8104V43.1104" stroke="#B1AFAC" stroke-width="2" stroke-linecap="square" stroke-linejoin="round"></path> <path d="M68.6899 55.6699H70.9099V58.0199H68.6899V55.6699Z" fill="#00627B"></path> <path d="M68.6899 42.9395H70.9099V45.2895H68.6899V42.9395Z" fill="#00627B"></path> <path d="M68.6899 29.7197H70.9099V32.0697H68.6899V29.7197Z" fill="#00627B"></path> <path d="M68.6899 82.2402H70.9099V84.5902H68.6899V82.2402Z" fill="#00627B"></path> <path d="M68.6899 69.5098H70.9099V71.8598H68.6899V69.5098Z" fill="#00627B"></path> <path d="M68.6899 122.4H70.9099V124.75H68.6899V122.4Z" fill="#00627B"></path> <path d="M68.6899 109.55H70.9099V111.9H68.6899V109.55Z" fill="#00627B"></path> <path d="M68.6899 96.4502H70.9099V98.8002H68.6899V96.4502Z" fill="#00627B"></path> <path d="M28.52 83.8496H30.87V86.0696H28.52V83.8496Z" fill="#00627B"></path> <path d="M35.3199 83.8496H37.6699V86.0696H35.3199V83.8496Z" fill="#00627B"></path> <path d="M28.52 96.4502H30.87V98.6702H28.52V96.4502Z" fill="#00627B"></path> <path d="M35.3199 96.4502H37.6699V98.6702H35.3199V96.4502Z" fill="#00627B"></path> <path d="M28.52 109.18H30.87V111.4H28.52V109.18Z" fill="#00627B"></path> <path d="M35.3199 109.18H37.6699V111.4H35.3199V109.18Z" fill="#00627B"></path> <path d="M28.52 121.79H30.87V124.01H28.52V121.79Z" fill="#00627B"></path> <path d="M35.3199 121.79H37.6699V124.01H35.3199V121.79Z" fill="#00627B"></path> <path d="M102.55 112.89H104.9V114.5H102.55V112.89Z" stroke="#B1AFAC" stroke-width="2" stroke-linecap="square" stroke-linejoin="round"></path> <path d="M107.61 112.89H109.96V114.5H107.61V112.89Z" stroke="#B1AFAC" stroke-width="2" stroke-linecap="square" stroke-linejoin="round"></path> <path d="M102.55 122.28H104.9V123.89H102.55V122.28Z" stroke="#B1AFAC" stroke-width="2" stroke-linecap="square" stroke-linejoin="round"></path> <path d="M107.61 122.28H109.96V123.89H107.61V122.28Z" stroke="#B1AFAC" stroke-width="2" stroke-linecap="square" stroke-linejoin="round"></path> <path d="M64.61 130.06V24.28C64.61 24.28 64.65 24.04 64.85 24.04H74.61C74.61 24.04 74.85 24.08 74.85 24.28V130.05" stroke="#00627B" stroke-width="2" stroke-linejoin="round"></path> <path d="M79.8101 75.3203H85.0001C85.0001 75.3203 85.1001 75.3603 85.2001 75.4403C85.2001 75.4703 85.2001 75.5203 85.1801 75.6003L82.2201 83.6203L82.1601 83.9603V130.05" stroke="#00627B" stroke-width="2" stroke-linejoin="round"></path> <path d="M79.8101 51.2305H85.0001C85.0001 51.2305 85.1001 51.2705 85.2001 51.3505C85.2001 51.3805 85.2001 51.4305 85.1801 51.5105L82.2201 59.5305L82.1601 59.8705V75.4305" stroke="#00627B" stroke-width="2" stroke-linejoin="round"></path> <path d="M79.0601 26.7598H84.9901C85.1201 26.7598 85.1401 26.7898 85.1501 26.8098C85.1901 26.8598 85.2101 26.8998 85.1501 27.0598L82.1901 35.4498L82.1301 35.7798V51.4698" stroke="#00627B" stroke-width="2" stroke-linejoin="round"></path> <path d="M58.31 130.06V84.0902L58.25 83.7502L55.29 75.7402C55.24 75.5902 55.27 75.5602 55.3 75.5002C55.32 75.4802 55.33 75.4502 55.46 75.4502H60.65" stroke="#00627B" stroke-width="2" stroke-linejoin="round"></path> <path d="M58.31 75.5704V60.0004L58.25 59.6604L55.29 51.6504C55.24 51.5004 55.27 51.4704 55.3 51.4104C55.32 51.3904 55.33 51.3604 55.46 51.3604H60.65" stroke="#00627B" stroke-width="2" stroke-linejoin="round"></path> <path d="M58.31 51.4697V35.7796L58.25 35.4496L55.29 27.1796C55.24 27.0296 55.27 26.9896 55.3 26.9396C55.32 26.9196 55.33 26.8896 55.46 26.8896H60.65" stroke="#00627B" stroke-width="2" stroke-linejoin="round"></path> <path d="M20 130.06V57.4C20 57.4 20.03 57.33 20.09 57.25L20.18 57.3L45.44 69.62C45.56 69.72 45.57 69.8 45.57 69.87V130.05" stroke="#00627B" stroke-width="2" stroke-linejoin="round"></path> <path d="M45.7 109.93H58.5499" stroke="#00627B" stroke-width="2" stroke-linejoin="round"></path> <path d="M69.78 24.03V9" stroke="#00627B" stroke-width="2" stroke-linejoin="round"></path></svg>