<svg width="16" height="16" viewBox="0 0 16 16" fill="none" xmlns="http://www.w3.org/2000/svg">
<path d="M8.5 10C8.41629 10 8.33531 9.98473 8.25704 9.9542C8.17836 9.92366 8.11285 9.88295 8.06054 9.83206L5.17265 7.0229C5.05755 6.91094 5 6.76845 5 6.59542C5 6.42239 5.05755 6.2799 5.17265 6.16794C5.28774 6.05598 5.43423 6 5.61211 6C5.78998 6 5.93647 6.05598 6.05157 6.16794L8.5 8.54962L10.9484 6.16794C11.0635 6.05598 11.21 6 11.3879 6C11.5658 6 11.7123 6.05598 11.8274 6.16794C11.9425 6.2799 12 6.42239 12 6.59542C12 6.76845 11.9425 6.91094 11.8274 7.0229L8.93946 9.83206C8.87668 9.89313 8.80867 9.93628 8.73543 9.96153C8.66218 9.98718 8.58371 10 8.5 10Z" fill="#8B909E"/>
</svg>
