<svg width="24" height="24" viewBox="0 0 24 24" fill="none" xmlns="http://www.w3.org/2000/svg">
<path d="M8.9994 10C8.73418 10 8.47983 10.1054 8.29229 10.2929C8.10475 10.4804 7.9994 10.7348 7.9994 11V15H9.9994V12H12.9994V14.5L16.4994 11L12.9994 7.50001V10H8.9994ZM12.7064 1.39301L22.6064 11.293C22.7939 11.4805 22.8992 11.7348 22.8992 12C22.8992 12.2652 22.7939 12.5195 22.6064 12.707L12.7064 22.607C12.5189 22.7945 12.2646 22.8998 11.9994 22.8998C11.7342 22.8998 11.4799 22.7945 11.2924 22.607L1.3924 12.707C1.20492 12.5195 1.09961 12.2652 1.09961 12C1.09961 11.7348 1.20492 11.4805 1.3924 11.293L11.2924 1.39301C11.4799 1.20554 11.7342 1.10022 11.9994 1.10022C12.2646 1.10022 12.5189 1.20554 12.7064 1.39301Z" fill="#D5001A"/>
</svg>
