<svg width="44" height="44" viewBox="0 0 44 44" fill="none" xmlns="http://www.w3.org/2000/svg">
<g id="Frame">
<g id="Group">
<path id="Vector" d="M23.1847 1.90483C24.1959 1.26665 25.5209 1.45709 26.3113 2.35433C26.6153 2.6995 27.011 2.95146 27.4523 3.08106C27.8937 3.21065 28.3627 3.21257 28.8051 3.08658C29.9551 2.75914 31.1728 3.31521 31.6783 4.39875C31.8728 4.81559 32.1814 5.1688 32.5684 5.41749C32.9553 5.66617 33.4048 5.80016 33.8648 5.80394C35.0604 5.8137 36.0721 6.69027 36.2519 7.87246C36.3211 8.32721 36.5177 8.75305 36.8189 9.10068C37.1201 9.44831 37.5137 9.70351 37.9539 9.83671C39.0985 10.183 39.8221 11.309 39.6617 12.494C39.5999 12.9498 39.6686 13.4138 39.8597 13.8322C40.0507 14.2506 40.3564 14.6063 40.7413 14.8582C41.7419 15.5129 42.1191 16.7972 41.6313 17.8889C41.4436 18.3088 41.3788 18.7734 41.4442 19.2287C41.5097 19.684 41.7028 20.1114 42.0012 20.4615C42.7768 21.3716 42.7768 22.7101 42.0012 23.6202C41.7028 23.9702 41.5097 24.3977 41.4442 24.853C41.3788 25.3083 41.4436 25.7728 41.6313 26.1927C42.1191 27.2845 41.742 28.5688 40.7413 29.2235C40.3564 29.4753 40.0507 29.831 39.8597 30.2495C39.6686 30.6679 39.5999 31.1318 39.6617 31.5877C39.8222 32.7726 39.0985 33.8986 37.9539 34.2449C37.5137 34.3781 37.1201 34.6333 36.8189 34.9809C36.5177 35.3286 36.3211 35.7544 36.2519 36.2092C36.0721 37.3913 35.0604 38.2678 33.8648 38.2777C33.4048 38.2814 32.9553 38.4154 32.5683 38.6641C32.1814 38.9128 31.8728 39.266 31.6783 39.6829C31.1727 40.7664 29.9551 41.3225 28.8051 40.995C28.3627 40.8691 27.8937 40.871 27.4523 41.0006C27.011 41.1302 26.6154 41.3821 26.3113 41.7273C25.5209 42.6245 24.1959 42.8151 23.1847 42.1768C22.7957 41.9313 22.3452 41.801 21.8852 41.801C21.4252 41.801 20.9746 41.9313 20.5856 42.1768C19.5744 42.815 18.2495 42.6245 17.4591 41.7273C17.155 41.3821 16.7594 41.1302 16.3181 41.0006C15.8767 40.871 15.4077 40.8691 14.9653 40.995C13.8153 41.3225 12.5976 40.7664 12.0921 39.6829C11.8976 39.266 11.589 38.9128 11.202 38.6641C10.8151 38.4155 10.3656 38.2815 9.90562 38.2777C8.70996 38.2679 7.69831 37.3914 7.51844 36.2092C7.44926 35.7544 7.25267 35.3286 6.95145 34.9809C6.65023 34.6333 6.2567 34.3781 5.81643 34.2449C4.6719 33.8986 3.94828 32.7726 4.1087 31.5877C4.17044 31.1318 4.1018 30.6679 3.91072 30.2495C3.71964 29.831 3.41394 29.4753 3.02903 29.2235C2.02847 28.5687 1.6513 27.2845 2.13909 26.1927C2.32674 25.7728 2.39159 25.3083 2.32613 24.853C2.26067 24.3977 2.06758 23.9702 1.76922 23.6202C0.993592 22.7101 0.993592 21.3715 1.76922 20.4615C2.06758 20.1114 2.26067 19.684 2.32613 19.2287C2.39159 18.7734 2.32674 18.3088 2.13909 17.8889C1.6513 16.7972 2.02838 15.5128 3.02903 14.8582C3.41394 14.6063 3.71964 14.2506 3.91072 13.8322C4.1018 13.4138 4.17044 12.9498 4.1087 12.494C3.94819 11.309 4.6719 10.183 5.81643 9.83671C6.25671 9.70352 6.65024 9.44833 6.95146 9.1007C7.25268 8.75306 7.44927 8.32721 7.51844 7.87246C7.69831 6.69036 8.70996 5.81379 9.90562 5.80394C10.3656 5.80018 10.8151 5.6662 11.202 5.41751C11.589 5.16882 11.8976 4.8156 12.0921 4.39875C12.5977 3.31521 13.8153 2.75914 14.9653 3.08658C15.4077 3.21256 15.8767 3.21063 16.3181 3.08104C16.7594 2.95145 17.155 2.69949 17.4591 2.35433C18.2495 1.45709 19.5744 1.26665 20.5856 1.90483C20.9746 2.15034 21.4252 2.28064 21.8852 2.28064C22.3452 2.28064 22.7957 2.15034 23.1847 1.90483Z" fill="#0FA50F"/>
<g id="Group_2">
<path id="Vector_2" d="M8.88336 18.9067V21.7409H12.3127V23.4413H8.88336V26.8424H6.92773V17.2062H13.078V18.9067H8.88336ZM14.4524 17.2062H18.1936C20.461 17.2062 21.5946 18.2644 21.5946 20.3804C21.5946 21.637 21.1221 22.5627 20.1775 23.1579L21.5521 26.8424H19.4123L18.2928 23.6113H16.408V26.8424H14.4524V17.2062H14.4524ZM18.2219 21.9393C18.6659 21.9393 19.006 21.8 19.2422 21.5213C19.4782 21.2426 19.5965 20.8672 19.5965 20.3946C19.5965 19.9223 19.4736 19.5515 19.228 19.2822C18.9823 19.0129 18.6375 18.8784 18.1936 18.8784H16.4081V21.9393H18.2219ZM25.1939 18.9067V21.1598H28.6233V22.8319H25.1939V25.1418H29.4736V26.8423H23.2384V17.2062H29.4736V18.9067H25.1939ZM33.0444 18.9067V21.1598H36.4738V22.8319H33.0444V25.1418H37.3241V26.8423H31.0888V17.2062H37.3241V18.9067H33.0444Z" fill="white"/>
</g>
</g>
</g>
</svg>
