<svg width="44" height="44" viewBox="0 0 44 44" fill="none" xmlns="http://www.w3.org/2000/svg">
<g id="Frame">
<g id="Group">
<path id="Vector" d="M16.0615 0H27.9392V7.96781H16.0615V0Z" fill="#636DA4"/>
<path id="Vector_2" d="M29.9688 32.0483V44H32.6247C34.0916 44 35.2806 42.811 35.2806 41.3441V40.0161L29.9688 32.0483Z" fill="#524CB2"/>
<path id="Vector_3" d="M8.7207 40.0161V41.3441C8.7207 42.811 9.90968 44 11.3766 44H29.9682C31.4351 44 32.6241 42.811 32.6241 41.3441V32.0483L8.7207 40.0161Z" fill="#636DA4"/>
<path id="Vector_4" d="M32.6247 0H29.9688V37.3602L32.6247 40.0161H35.2806V2.65594C35.2806 1.18897 34.0916 0 32.6247 0Z" fill="#FFE7B5"/>
<path id="Vector_5" d="M29.9682 0H27.9392C27.446 2.26331e-06 26.9625 0.137348 26.5429 0.396648C26.1234 0.655949 25.7843 1.02696 25.5637 1.46811L24.3759 3.84367C24.1554 4.28484 23.8163 4.65588 23.3967 4.9152C22.9771 5.17451 22.4936 5.31187 22.0004 5.31187C21.5071 5.31187 21.0236 5.17451 20.6041 4.9152C20.1845 4.65588 19.8454 4.28484 19.6248 3.84367L18.4371 1.46811C18.2165 1.02696 17.8774 0.655949 17.4578 0.396648C17.0383 0.137348 16.5548 2.26331e-06 16.0615 0L11.3766 0C9.90977 0 8.7207 1.18906 8.7207 2.65594V40.0161H32.6241V2.65594C32.6241 1.18906 31.4351 0 29.9682 0Z" fill="#FFF7E6"/>
<path id="Vector_6" d="M22.0009 3.31991C22.3676 3.31991 22.6649 3.02264 22.6649 2.65593C22.6649 2.28922 22.3676 1.99194 22.0009 1.99194C21.6342 1.99194 21.3369 2.28922 21.3369 2.65593C21.3369 3.02264 21.6342 3.31991 22.0009 3.31991Z" fill="#524CB2"/>
<path id="Vector_7" d="M26.6855 19.5813L24.482 19.2494L22.5946 15.4745C22.3499 14.9851 21.6515 14.9851 21.4068 15.4745L19.5194 19.2494L15.3461 19.8779C14.8051 19.9594 14.5892 20.6236 14.979 21.0076L17.9859 23.9691L17.294 28.1324C17.2043 28.6722 17.7693 29.0826 18.2549 28.8306L22.0007 26.8861L23.9786 27.9128L26.6855 19.5813Z" fill="#FFD06A"/>
<path id="Vector_8" d="M26.015 23.9691L29.0218 21.0076C29.4116 20.6236 29.1958 19.9594 28.6548 19.8779L26.6851 19.5812L23.1689 23.0443L23.978 27.9127L25.7459 28.8305C26.2315 29.0827 26.7965 28.6722 26.7068 28.1324L26.015 23.9691ZM39.3346 22.9351L36.9512 22.5762L35.8733 20.4203C35.7511 20.1758 35.5155 20.0536 35.2798 20.0536L33.9519 24.4863L35.2798 27.7202L37.419 28.8306C37.9043 29.0826 38.469 28.6723 38.3793 28.1329L37.9842 25.7553L39.7013 24.064C40.091 23.6802 39.8752 23.0165 39.3346 22.9351Z" fill="#FFB35C"/>
<path id="Vector_9" d="M34.6868 20.4203L33.609 22.5762L31.2256 22.9351C30.6849 23.0165 30.4692 23.6802 30.8588 24.0639L32.576 25.7552L32.1809 28.1328C32.0912 28.6722 32.6558 29.0825 33.1412 28.8305L35.2803 27.7201V20.0535C35.0448 20.0535 34.8091 20.1758 34.6868 20.4203Z" fill="#FFD06A"/>
<path id="Vector_10" d="M12.7753 22.935L10.3919 22.5761L9.31406 20.4203C9.1918 20.1758 8.95622 20.0535 8.72055 20.0535L7.39258 24.4863L8.72055 27.7202L10.8597 28.8306C11.3451 29.0826 11.9097 28.6723 11.82 28.1329L11.4249 25.7553L13.1421 24.064C13.5317 23.6802 13.3159 23.0165 12.7753 22.935Z" fill="#FFB35C"/>
<path id="Vector_11" d="M8.12726 20.4203L7.0494 22.5762L4.66605 22.9351C4.1253 23.0165 3.90964 23.6802 4.29926 24.0639L6.01641 25.7552L5.6213 28.1328C5.53162 28.6722 6.09627 29.0825 6.5816 28.8305L8.72078 27.7201V20.0535C8.4852 20.0535 8.24953 20.1758 8.12726 20.4203Z" fill="#FFD06A"/>
</g>
</g>
</svg>
