<svg width="16" height="17" viewBox="0 0 16 17" fill="none" xmlns="http://www.w3.org/2000/svg">
<path d="M4 1.5V6.32759M12 1.5V6.32759M5.5 9.7069L7.5 11.6379L11 7.77586M2 3.91379H14C14.2652 3.91379 14.5196 4.01552 14.7071 4.19659C14.8946 4.37766 15 4.62324 15 4.87931V14.5345C15 14.7906 14.8946 15.0361 14.7071 15.2172C14.5196 15.3983 14.2652 15.5 14 15.5H2C1.73478 15.5 1.48043 15.3983 1.29289 15.2172C1.10536 15.0361 1 14.7906 1 14.5345V4.87931C1 4.62324 1.10536 4.37766 1.29289 4.19659C1.48043 4.01552 1.73478 3.91379 2 3.91379Z" stroke="#00818A"/>
</svg>
