<svg xmlns="http://www.w3.org/2000/svg" width="20" height="20" viewBox="0 0 20 20" fill="none">
  <path d="M17.6579 7.69857L12.2939 2.33457C11.8476 1.88827 11.1488 1.88868 10.7029 2.33457L2.33515 10.7023C2.11559 10.9218 1.99346 11.2234 2.00027 11.5292C2.00668 11.8257 2.12805 12.0991 2.34234 12.3006L3.48481 13.443C3.68269 13.6413 3.99572 13.6643 4.22057 13.4981C4.87662 13.0135 5.7897 13.0767 6.34472 13.6456C6.91329 14.2282 6.98248 15.1433 6.50547 15.7745C6.42317 15.8834 6.38302 16.0183 6.39244 16.1544C6.40186 16.2906 6.46021 16.4187 6.55672 16.5152L7.70634 17.6648C7.92025 17.8785 8.21161 18.0001 8.50936 18.0001C8.51727 18.0001 8.52539 17.9999 8.5333 17.9997C8.82974 17.9933 9.10322 17.8721 9.30466 17.6576L17.665 9.2967C17.8846 9.07732 18.0065 8.77597 17.9999 8.46993C17.9935 8.17349 17.8723 7.90004 17.6579 7.69857ZM11.5099 3.12818C11.5072 3.12968 11.5029 3.13043 11.4993 3.13118L11.1028 2.73467L11.5099 3.12818ZM8.50202 16.8612L7.67072 16.0299C8.17785 15.0018 7.98922 13.7118 7.15395 12.8558C6.32153 12.0036 5.02509 11.8106 3.9716 12.3308L3.1388 11.4981L11.4986 3.13855L16.8616 8.50159L8.50202 16.8612Z" fill="#494951"/>
  <path d="M8.70215 5.05472L9.50664 4.26051L10.9576 5.7303L10.1531 6.52447L8.70215 5.05472ZM13.4954 9.86518L14.2898 9.06041L15.76 10.5116L14.9656 11.3164L13.4954 9.86518ZM11.0984 7.4505L11.8978 6.65107L13.3676 8.12092L12.5682 8.92031L11.0984 7.4505Z" fill="#494951"/>
</svg>