<svg xmlns="http://www.w3.org/2000/svg" width="24" height="24" viewBox="0 0 24 24" fill="none">
  <path d="M19.8001 15C18.8077 15 18.0001 14.1924 18.0001 13.2C18.0001 12.5376 17.4625 12 16.8001 12C16.1377 12 15.6001 12.5376 15.6001 13.2C15.6001 14.1924 14.7925 15 13.8001 15C13.1377 15 12.6001 15.5376 12.6001 16.2C12.6001 16.8624 13.1377 17.4 13.8001 17.4C14.7925 17.4 15.6001 18.2076 15.6001 19.2C15.6001 19.8624 16.1377 20.4 16.8001 20.4C17.4625 20.4 18.0001 19.8624 18.0001 19.2C18.0001 18.2076 18.8077 17.4 19.8001 17.4C20.4625 17.4 21.0001 16.8624 21.0001 16.2C21.0001 15.5376 20.4625 15 19.8001 15Z" fill="white"/>
  <path d="M12.2571 7.45675C10.9812 7.45675 9.94286 6.41841 9.94286 5.14247C9.94286 4.29081 9.25166 3.59961 8.4 3.59961C7.54834 3.59961 6.85714 4.29081 6.85714 5.14247C6.85714 6.41841 5.8188 7.45675 4.54286 7.45675C3.6912 7.45675 3 8.14795 3 8.99961C3 9.85127 3.6912 10.5425 4.54286 10.5425C5.8188 10.5425 6.85714 11.5808 6.85714 12.8568C6.85714 13.7084 7.54834 14.3996 8.4 14.3996C9.25166 14.3996 9.94286 13.7084 9.94286 12.8568C9.94286 11.5808 10.9812 10.5425 12.2571 10.5425C13.1088 10.5425 13.8 9.85127 13.8 8.99961C13.8 8.14795 13.1088 7.45675 12.2571 7.45675Z" fill="white"/>
</svg>