<svg width="26" height="26" viewBox="0 0 26 26" fill="none" xmlns="http://www.w3.org/2000/svg">
<g id="si:user-line">
<path id="Vector" d="M21.1501 23.8226H4.86217C3.23392 23.8226 1.97725 22.5941 2.19067 20.9799L2.31417 20.0385C2.53842 18.7385 3.72792 17.9206 5.01925 17.64L12.9222 16.2501H13.0782L20.9811 17.64C22.2941 17.9433 23.4619 18.7157 23.6862 20.0385L23.8097 20.9918C24.0231 22.606 22.7664 23.8334 21.1382 23.8334L21.1501 23.8226ZM18.4168 7.58341C18.4168 9.02 17.8462 10.3978 16.8303 11.4136C15.8145 12.4294 14.4368 13.0001 13.0002 13.0001C11.5636 13.0001 10.1858 12.4294 9.17 11.4136C8.15418 10.3978 7.5835 9.02 7.5835 7.58341C7.5835 6.14683 8.15418 4.76908 9.17 3.75325C10.1858 2.73743 11.5636 2.16675 13.0002 2.16675C14.4368 2.16675 15.8145 2.73743 16.8303 3.75325C17.8462 4.76908 18.4168 6.14683 18.4168 7.58341Z" stroke="white" stroke-width="2" stroke-linecap="round" stroke-linejoin="round"/>
</g>
</svg>
