<svg width="403" height="272" viewBox="0 0 403 272" fill="none" xmlns="http://www.w3.org/2000/svg">
<g clip-path="url(#clip0_6821_4558)">
<path fill-rule="evenodd" clip-rule="evenodd" d="M22.7911 263.935C11.0774 224.647 23.0983 197.788 68.1634 198.242C68.7644 137.608 102.877 129.972 136.068 147.326C146.366 112.284 168.698 101.271 203.973 116.169C239.301 98.0934 263.877 105.809 276.499 142.214C313.644 139.757 341.372 155.67 333.091 203.141C365.027 204.97 381.228 219.374 374.149 262.653L22.7911 263.935Z" fill="#D6EBEC"/>
<path fill-rule="evenodd" clip-rule="evenodd" d="M256.075 32.1334C256.075 26.7002 251.654 22.2815 246.218 22.2815H142.705C137.269 22.2815 132.848 26.7002 132.848 32.1334V251.546C132.848 256.98 137.269 261.398 142.705 261.398H246.218C251.654 261.398 256.075 256.98 256.075 251.546V32.1334Z" fill="#00818B"/>
<path fill-rule="evenodd" clip-rule="evenodd" d="M253.619 34.8698C253.619 29.6502 249.371 25.405 244.149 25.405H144.763C139.54 25.405 135.293 29.6502 135.293 34.8698V245.846C135.293 251.065 139.54 255.311 144.763 255.311H244.149C249.371 255.311 253.619 251.065 253.619 245.846V34.8698Z" fill="url(#paint0_linear_6821_4558)"/>
<path fill-rule="evenodd" clip-rule="evenodd" d="M200.832 25.0583C199.844 27.7817 197.306 29.5838 194.461 29.5838C191.616 29.5838 189.078 27.7817 188.09 25.0583H200.832Z" fill="#00818B"/>
<path d="M236.802 76.1067H152.121V87.9611H236.802V76.1067Z" fill="#BFE0E2"/>
<path d="M230.175 79.7378H158.758V84.33H230.175V79.7378Z" fill="#94CACE"/>
<path fill-rule="evenodd" clip-rule="evenodd" d="M228.761 82.0339C228.761 82.0339 227.866 82.0339 226.65 82.0339C224.967 82.0339 223.351 82.7014 222.149 83.8895C220.96 85.0776 220.292 86.6929 220.292 88.3883C220.292 107.732 220.292 166.496 220.292 197.614C220.292 208.561 211.41 217.438 200.458 217.438C190.574 217.438 178.794 217.438 169.537 217.438C165.343 217.438 161.323 215.769 158.371 212.819C155.42 209.869 153.75 205.837 153.75 201.659C153.75 171.89 153.75 108.613 153.75 88.4017C153.75 86.7196 154.418 85.1043 155.607 83.9029C156.795 82.7148 158.411 82.0473 160.108 82.0473L228.761 82.0339Z" fill="url(#paint1_linear_6821_4558)"/>
<path fill-rule="evenodd" clip-rule="evenodd" d="M228.764 81.6467H160.085C158.295 81.6467 156.585 82.3543 155.317 83.6225C154.048 84.8907 153.34 86.5994 153.34 88.3882C153.34 108.613 153.34 171.876 153.34 201.646C153.34 205.931 155.049 210.042 158.081 213.086C161.113 216.117 165.227 217.825 169.528 217.825C178.784 217.825 190.565 217.825 200.448 217.825C211.615 217.825 220.67 208.774 220.67 197.614C220.67 166.496 220.67 107.745 220.67 88.3882C220.67 86.7996 221.298 85.2778 222.42 84.1564C223.542 83.0351 225.065 82.4077 226.654 82.4077C227.87 82.4077 228.764 82.4077 228.764 82.4077C228.978 82.4077 229.138 82.2341 229.138 82.0339C229.152 81.8203 228.978 81.6467 228.764 81.6467ZM223.542 82.4077C222.941 82.728 222.38 83.1285 221.886 83.6225C220.617 84.8907 219.909 86.5994 219.909 88.3882C219.909 107.732 219.909 166.496 219.909 197.614C219.909 208.36 211.201 217.064 200.448 217.064C190.565 217.064 178.784 217.064 169.528 217.064C165.441 217.064 161.514 215.436 158.629 212.552C155.731 209.655 154.115 205.744 154.115 201.659C154.115 171.89 154.115 108.613 154.115 88.4016C154.115 86.813 154.742 85.2912 155.864 84.1698C156.986 83.0484 158.509 82.421 160.098 82.421H223.542V82.4077Z" fill="#C7E3E5"/>
<path fill-rule="evenodd" clip-rule="evenodd" d="M214.657 131.454C214.657 130.76 214.082 130.186 213.388 130.186H173.826C173.131 130.186 172.557 130.76 172.557 131.454C172.557 132.148 173.131 132.722 173.826 132.722H213.388C214.082 132.722 214.657 132.148 214.657 131.454ZM214.657 125.647C214.657 124.953 214.082 124.379 213.388 124.379H200.419C199.724 124.379 199.15 124.953 199.15 125.647C199.15 126.341 199.724 126.915 200.419 126.915H213.388C214.082 126.915 214.657 126.341 214.657 125.647ZM196.826 125.647C196.826 124.953 196.251 124.379 195.557 124.379H160.028C159.334 124.379 158.759 124.953 158.759 125.647C158.759 126.341 159.334 126.915 160.028 126.915H195.557C196.265 126.915 196.826 126.341 196.826 125.647ZM214.657 119.84C214.657 119.146 214.082 118.572 213.388 118.572H160.028C159.334 118.572 158.759 119.146 158.759 119.84C158.759 120.534 159.334 121.108 160.028 121.108H213.388C214.082 121.108 214.657 120.547 214.657 119.84ZM167.748 114.033C167.748 113.339 167.174 112.764 166.48 112.764H160.028C159.334 112.764 158.759 113.339 158.759 114.033C158.759 114.727 159.334 115.301 160.028 115.301H166.48C167.174 115.301 167.748 114.74 167.748 114.033ZM214.657 114.033C214.657 113.339 214.082 112.764 213.388 112.764H172.049C171.355 112.764 170.78 113.339 170.78 114.033C170.78 114.727 171.355 115.301 172.049 115.301H213.374C214.082 115.301 214.657 114.74 214.657 114.033ZM182.815 108.239C182.815 107.545 182.24 106.971 181.546 106.971H160.028C159.334 106.971 158.759 107.545 158.759 108.239C158.759 108.933 159.334 109.507 160.028 109.507H181.546C182.24 109.507 182.815 108.933 182.815 108.239ZM214.657 108.239C214.657 107.545 214.082 106.971 213.388 106.971H187.984C187.289 106.971 186.715 107.545 186.715 108.239C186.715 108.933 187.289 109.507 187.984 109.507H213.388C214.082 109.507 214.657 108.933 214.657 108.239ZM214.657 98.12C214.657 96.2111 213.107 94.6492 211.184 94.6492H162.219C160.309 94.6492 158.746 96.1977 158.746 98.12C158.746 100.029 160.295 101.591 162.219 101.591H211.184C213.094 101.578 214.657 100.029 214.657 98.12Z" fill="#B0D8DB"/>
<path fill-rule="evenodd" clip-rule="evenodd" d="M117.531 127.663V199.336C117.531 209.335 125.639 217.438 135.643 217.438H189.443V147.7C189.443 142.387 187.333 137.288 183.566 133.523C179.8 129.759 174.711 127.649 169.381 127.649L117.531 127.663Z" fill="url(#paint2_linear_6821_4558)"/>
<path fill-rule="evenodd" clip-rule="evenodd" d="M117.525 127.156C117.245 127.156 117.031 127.382 117.031 127.649V199.323C117.031 209.602 125.366 217.932 135.65 217.932H189.451C189.731 217.932 189.945 217.705 189.945 217.438V147.7C189.945 142.254 187.781 137.034 183.921 133.176C180.061 129.318 174.838 127.156 169.389 127.156H117.525ZM118.02 128.157H169.376C174.558 128.157 179.54 130.213 183.2 133.884C186.873 137.555 188.93 142.521 188.93 147.7V216.944H135.637C125.913 216.944 118.02 209.068 118.02 199.336V128.157Z" fill="#C7E3E5"/>
<path fill-rule="evenodd" clip-rule="evenodd" d="M167.748 127.663C162.099 127.663 156.676 129.905 152.682 133.897C148.689 137.889 146.445 143.308 146.445 148.955C146.445 169.861 146.445 198.629 146.445 198.629H67.3203C67.3203 198.629 67.3203 165.442 67.3203 144.456C67.3203 135.179 74.8534 127.649 84.1362 127.649C112.719 127.663 167.748 127.663 167.748 127.663Z" fill="url(#paint3_linear_6821_4558)"/>
<path fill-rule="evenodd" clip-rule="evenodd" d="M167.748 128.063C162.205 128.063 156.889 130.266 152.963 134.191C149.036 138.115 146.832 143.428 146.832 148.969C146.832 169.874 146.832 198.642 146.832 198.642C146.832 198.869 146.658 199.043 146.431 199.043H67.3069C67.0799 199.043 66.9062 198.869 66.9062 198.642C66.9062 198.642 66.9062 165.455 66.9062 144.47C66.9062 134.965 74.613 127.262 84.1229 127.262H167.748C168.283 127.262 167.748 128.063 167.748 128.063ZM161.898 128.063C158.332 129.064 155.06 130.96 152.388 133.617C148.315 137.688 146.031 143.202 146.031 148.969C146.031 168.432 146.031 194.704 146.031 198.242C140.234 198.242 73.5044 198.242 67.7076 198.242V144.47C67.7076 135.405 75.0537 128.063 84.1229 128.063H161.898Z" fill="#C7E3E5"/>
<path fill-rule="evenodd" clip-rule="evenodd" d="M125.502 179.432C125.502 178.738 124.928 178.164 124.233 178.164H77.7259C77.0314 178.164 76.457 178.738 76.457 179.432C76.457 180.126 77.0314 180.7 77.7259 180.7H124.233C124.928 180.7 125.502 180.126 125.502 179.432ZM85.4326 172.544C85.4326 171.85 84.8583 171.276 84.1638 171.276H78.14C77.4454 171.276 76.8711 171.85 76.8711 172.544C76.8711 173.238 77.4454 173.812 78.14 173.812H84.1638C84.8717 173.825 85.4326 173.251 85.4326 172.544ZM137.684 172.544C137.684 171.85 137.109 171.276 136.415 171.276H89.9071C89.2126 171.276 88.6382 171.85 88.6382 172.544C88.6382 173.238 89.2126 173.812 89.9071 173.812H136.415C137.109 173.825 137.684 173.251 137.684 172.544ZM137.684 166.123C137.684 165.428 137.109 164.854 136.415 164.854H114.603C113.909 164.854 113.335 165.428 113.335 166.123C113.335 166.817 113.909 167.391 114.603 167.391H136.415C137.109 167.391 137.684 166.817 137.684 166.123ZM109.848 166.123C109.848 165.428 109.274 164.854 108.58 164.854H78.1533C77.4588 164.854 76.8844 165.428 76.8844 166.123C76.8844 166.817 77.4588 167.391 78.1533 167.391H108.58C109.274 167.391 109.848 166.817 109.848 166.123ZM94.0076 159.234C94.0076 158.54 93.4332 157.966 92.7387 157.966H78.1533C77.4588 157.966 76.8844 158.54 76.8844 159.234C76.8844 159.928 77.4588 160.502 78.1533 160.502H92.7387C93.4332 160.502 94.0076 159.942 94.0076 159.234ZM137.684 159.234C137.684 158.54 137.109 157.966 136.415 157.966H98.4687C97.7741 157.966 97.1998 158.54 97.1998 159.234C97.1998 159.928 97.7741 160.502 98.4687 160.502H136.415C137.109 160.502 137.684 159.942 137.684 159.234ZM137.684 148.181C137.684 146.272 136.134 144.71 134.211 144.71H80.3438C78.4338 144.71 76.8711 146.259 76.8711 148.181C76.8711 150.09 78.4204 151.652 80.3438 151.652H134.211C136.121 151.652 137.684 150.09 137.684 148.181Z" fill="#B0D8DB"/>
<path d="M98.0955 111.643C112.037 111.643 123.339 100.347 123.339 86.4127C123.339 72.4783 112.037 61.1821 98.0955 61.1821C84.1536 61.1821 72.8516 72.4783 72.8516 86.4127C72.8516 100.347 84.1536 111.643 98.0955 111.643Z" fill="#83DA7E"/>
<path d="M100.955 110.001C114.897 110.001 126.199 98.7051 126.199 84.7706C126.199 70.8362 114.897 59.54 100.955 59.54C87.013 59.54 75.7109 70.8362 75.7109 84.7706C75.7109 98.7051 87.013 110.001 100.955 110.001Z" fill="#B5E9B2"/>
<path fill-rule="evenodd" clip-rule="evenodd" d="M116.06 73.5171L98.7633 88.6554L90.8696 79.6445C87.7441 82.3812 85.1797 84.6239 85.1797 84.6239L98.0554 99.3217L121.042 79.2173C121.042 79.204 118.798 76.6409 116.06 73.5171Z" fill="white"/>
<path fill-rule="evenodd" clip-rule="evenodd" d="M326.293 261.398C330.046 261.398 333.105 258.355 333.105 254.59V135.926C333.105 132.175 330.059 129.118 326.293 129.118H254.835C251.082 129.118 248.023 132.162 248.023 135.926V254.59C248.023 258.341 251.069 261.398 254.835 261.398H326.293Z" fill="url(#paint4_linear_6821_4558)"/>
<path fill-rule="evenodd" clip-rule="evenodd" d="M306.873 167.351C307.661 167.351 308.289 166.71 308.289 165.936V141.226C308.289 140.438 307.648 139.811 306.873 139.811H291.994C291.206 139.811 290.578 140.452 290.578 141.226V165.936C290.578 166.724 291.219 167.351 291.994 167.351H306.873Z" fill="url(#paint5_linear_6821_4558)"/>
<path fill-rule="evenodd" clip-rule="evenodd" d="M313.656 248.529C318.545 248.529 322.512 244.565 322.512 239.679V234.272C322.512 229.386 318.545 225.421 313.656 225.421C308.768 225.421 304.801 229.386 304.801 234.272V239.679C304.801 244.565 308.768 248.529 313.656 248.529Z" fill="#E6F2F3"/>
<path fill-rule="evenodd" clip-rule="evenodd" d="M275.016 160.649C276.552 160.649 277.795 159.408 277.795 157.873V140.305C277.795 138.77 276.552 137.528 275.016 137.528C273.48 137.528 272.238 138.77 272.238 140.305V157.873C272.238 159.408 273.48 160.649 275.016 160.649Z" fill="#E6F2F3"/>
<path fill-rule="evenodd" clip-rule="evenodd" d="M275.016 190.499C276.552 190.499 277.795 189.258 277.795 187.722V170.154C277.795 168.619 276.552 167.378 275.016 167.378C273.48 167.378 272.238 168.619 272.238 170.154V187.722C272.238 189.258 273.48 190.499 275.016 190.499Z" fill="#E6F2F3"/>
<path fill-rule="evenodd" clip-rule="evenodd" d="M265.319 190.499C266.174 190.499 266.868 189.805 266.868 188.95V139.063C266.868 138.209 266.174 137.515 265.319 137.515C264.464 137.515 263.77 138.209 263.77 139.063V188.95C263.77 189.805 264.464 190.499 265.319 190.499Z" fill="#E6F2F3"/>
<path fill-rule="evenodd" clip-rule="evenodd" d="M265.319 252.988C266.174 252.988 266.868 252.294 266.868 251.44V217.345C266.868 216.491 266.174 215.796 265.319 215.796C264.464 215.796 263.77 216.491 263.77 217.345V251.44C263.77 252.307 264.464 252.988 265.319 252.988Z" fill="#E6F2F3"/>
<path fill-rule="evenodd" clip-rule="evenodd" d="M275.016 223.139C276.552 223.139 277.795 221.897 277.795 220.362V202.794C277.795 201.259 276.552 200.017 275.016 200.017C273.48 200.017 272.238 201.259 272.238 202.794V220.362C272.238 221.897 273.48 223.139 275.016 223.139Z" fill="#E6F2F3"/>
<path fill-rule="evenodd" clip-rule="evenodd" d="M275.016 252.988C276.552 252.988 277.795 251.747 277.795 250.211V232.643C277.795 231.108 276.552 229.867 275.016 229.867C273.48 229.867 272.238 231.108 272.238 232.643V250.211C272.238 251.747 273.48 252.988 275.016 252.988Z" fill="#E6F2F3"/>
<path d="M293.739 64.3991C302.399 64.3991 309.42 57.3824 309.42 48.7268C309.42 40.0712 302.399 33.0544 293.739 33.0544C285.079 33.0544 278.059 40.0712 278.059 48.7268C278.059 57.3824 285.079 64.3991 293.739 64.3991Z" fill="#FFD524"/>
<path d="M303.127 59.8129C309.25 53.6925 309.25 43.7694 303.127 37.649C297.003 31.5287 287.075 31.5287 280.951 37.6491C274.827 43.7694 274.827 53.6925 280.951 59.8129C287.075 65.9332 297.003 65.9333 303.127 59.8129Z" fill="#FFE889"/>
<path fill-rule="evenodd" clip-rule="evenodd" d="M292.044 35.6978C299.243 35.6978 305.08 41.5315 305.08 48.7269C305.08 55.9223 299.243 61.756 292.044 61.756C284.845 61.756 279.008 55.9223 279.008 48.7269C279.008 41.5315 284.845 35.6978 292.044 35.6978ZM292.044 36.3118C298.896 36.3118 304.465 41.8786 304.465 48.7269C304.465 55.5752 298.896 61.1419 292.044 61.1419C285.192 61.1419 279.622 55.5752 279.622 48.7269C279.622 41.8786 285.192 36.3118 292.044 36.3118Z" fill="#B0731B"/>
<path d="M291.353 55.6285V54.4004C289.937 54.1734 288.628 53.5326 287.426 52.478L288.988 50.5824C289.857 51.3433 290.645 51.8239 291.353 52.0375V49.5411C290.177 49.2341 289.322 48.8336 288.775 48.3263C288.227 47.8191 287.947 47.0848 287.947 46.1237C287.947 45.1625 288.254 44.3749 288.882 43.7608C289.509 43.1467 290.324 42.7729 291.353 42.6394V41.8118H293.129V42.6661C294.251 42.8263 295.36 43.2802 296.468 44.0545L295.092 46.0302C294.385 45.5229 293.73 45.1892 293.129 45.029V47.4453C294.331 47.7523 295.226 48.1795 295.8 48.7001C296.375 49.2208 296.669 49.9683 296.669 50.9295C296.669 51.8907 296.348 52.6916 295.707 53.3057C295.066 53.9198 294.211 54.3069 293.129 54.4271V55.6018H291.353V55.6285ZM293.984 51.0897C293.984 50.8494 293.917 50.6625 293.797 50.5023C293.677 50.3421 293.45 50.1953 293.129 50.0618V52.1309C293.703 51.9441 293.984 51.597 293.984 51.0897ZM291.353 44.989C290.872 45.1625 290.631 45.4695 290.631 45.9101C290.631 46.364 290.872 46.6977 291.353 46.938V44.989Z" fill="#B0731B"/>
<path d="M317.643 108.097C325.868 99.8759 325.868 86.5465 317.643 78.3252C309.417 70.1039 296.08 70.1039 287.855 78.3252C279.629 86.5465 279.629 99.8759 287.855 108.097C296.08 116.319 309.417 116.319 317.643 108.097Z" fill="#FFD524"/>
<path d="M300.466 114.26C312.099 114.26 321.529 104.834 321.529 93.2075C321.529 81.5807 312.099 72.1553 300.466 72.1553C288.833 72.1553 279.402 81.5807 279.402 93.2075C279.402 104.834 288.833 114.26 300.466 114.26Z" fill="#FFE889"/>
<path fill-rule="evenodd" clip-rule="evenodd" d="M300.464 75.7063C310.12 75.7063 317.974 83.5425 317.974 93.2075C317.974 102.859 310.134 110.709 300.464 110.709C290.793 110.709 282.953 102.873 282.953 93.2075C282.953 83.5425 290.807 75.7063 300.464 75.7063ZM300.464 76.534C309.666 76.534 317.146 84.0097 317.146 93.2075C317.146 102.405 309.666 109.881 300.464 109.881C291.261 109.881 283.781 102.405 283.781 93.2075C283.781 83.9964 291.261 76.534 300.464 76.534Z" fill="#B0731B"/>
<path d="M299.526 102.472V100.83C297.616 100.537 295.866 99.6689 294.25 98.2405L296.347 95.6907C297.522 96.7053 298.578 97.3594 299.526 97.6531V94.3023C297.95 93.9019 296.788 93.3545 296.053 92.6737C295.319 91.9929 294.945 91.005 294.945 89.7235C294.945 88.4419 295.359 87.3873 296.2 86.5463C297.042 85.7186 298.15 85.2113 299.513 85.0511V83.9431H301.903V85.0912C303.399 85.3048 304.895 85.9188 306.391 86.9601L304.548 89.6167C303.6 88.9358 302.718 88.4953 301.917 88.2683V91.5123C303.533 91.9261 304.735 92.5001 305.51 93.2077C306.284 93.9152 306.672 94.9164 306.672 96.198C306.672 97.4929 306.244 98.5608 305.376 99.4019C304.508 100.243 303.359 100.75 301.917 100.91V102.486L299.526 102.472ZM303.065 96.3715C303.065 96.0511 302.985 95.7975 302.812 95.5839C302.651 95.3703 302.344 95.1834 301.917 94.9965V97.7732C302.678 97.5196 303.065 97.0523 303.065 96.3715ZM299.526 88.1749C298.885 88.4019 298.551 88.8157 298.551 89.4164C298.551 90.0171 298.871 90.471 299.526 90.7914V88.1749Z" fill="#B0731B"/>
<path d="M137.016 253.903C146.9 244.024 146.9 228.007 137.016 218.128C127.131 208.249 111.106 208.249 101.221 218.128C91.3371 228.007 91.3371 244.024 101.221 253.903C111.106 263.783 127.131 263.783 137.016 253.903Z" fill="#FFD524"/>
<path d="M134.266 253.907C144.15 244.028 144.15 228.011 134.266 218.132C124.381 208.253 108.356 208.253 98.4714 218.132C88.5871 228.011 88.5871 244.028 98.4714 253.907C108.356 263.786 124.381 263.786 134.266 253.907Z" fill="#FFE889"/>
<path fill-rule="evenodd" clip-rule="evenodd" d="M116.369 214.995C127.975 214.995 137.405 224.42 137.405 236.021C137.405 247.622 127.975 257.046 116.369 257.046C104.762 257.046 95.332 247.622 95.332 236.021C95.332 224.407 104.762 214.995 116.369 214.995ZM116.369 215.983C127.428 215.983 136.417 224.954 136.417 236.021C136.417 247.088 127.441 256.059 116.369 256.059C105.296 256.059 96.3204 247.074 96.3204 236.021C96.3204 224.967 105.309 215.983 116.369 215.983Z" fill="#B0731B"/>
<path d="M115.245 247.154V245.179C112.948 244.818 110.837 243.777 108.914 242.068L111.438 239.011C112.841 240.239 114.123 241.027 115.258 241.361V237.329C113.362 236.849 111.973 236.194 111.091 235.367C110.21 234.552 109.769 233.364 109.769 231.816C109.769 230.267 110.276 228.999 111.292 227.998C112.307 226.997 113.629 226.396 115.272 226.196V224.874H118.143V226.249C119.947 226.503 121.75 227.25 123.526 228.492L121.309 231.682C120.174 230.868 119.118 230.334 118.143 230.054V233.952C120.094 234.459 121.536 235.14 122.458 235.981C123.393 236.835 123.847 238.023 123.847 239.585C123.847 241.134 123.326 242.415 122.284 243.43C121.242 244.444 119.866 245.045 118.13 245.245V247.141L115.245 247.154ZM119.492 239.812C119.492 239.438 119.399 239.118 119.199 238.864C118.998 238.611 118.638 238.384 118.117 238.157V241.481C119.038 241.214 119.492 240.653 119.492 239.812ZM115.245 229.974C114.47 230.241 114.083 230.734 114.083 231.455C114.083 232.176 114.47 232.724 115.245 233.111V229.974Z" fill="#B0731B"/>
<path fill-rule="evenodd" clip-rule="evenodd" d="M56.4123 261.318C38.2741 253.589 30.0598 243.136 30.5139 230.294C42.7085 226.876 57.2404 234.579 63.3844 250.705C67.1911 235.14 75.953 224.34 90.9123 224.58C92.3548 243.536 83.4594 255.364 69.0877 261.305H56.4123V261.318Z" fill="#A3D2D5"/>
<path fill-rule="evenodd" clip-rule="evenodd" d="M367.754 261.318C385.892 253.589 394.107 243.136 393.653 230.294C381.458 226.876 366.926 234.579 360.782 250.705C356.976 235.14 348.214 224.34 333.254 224.58C331.812 243.536 340.707 255.364 355.079 261.305H367.754V261.318Z" fill="#A3D2D5"/>
</g>
<defs>
<linearGradient id="paint0_linear_6821_4558" x1="191.871" y1="255.584" x2="196.989" y2="30.5548" gradientUnits="userSpaceOnUse">
<stop stop-color="#E6F2F3"/>
<stop offset="1" stop-color="#F7FBFC"/>
</linearGradient>
<linearGradient id="paint1_linear_6821_4558" x1="191.199" y1="87.6521" x2="186.908" y2="269.805" gradientUnits="userSpaceOnUse">
<stop stop-color="white"/>
<stop offset="1" stop-color="#CCE6E8"/>
</linearGradient>
<linearGradient id="paint2_linear_6821_4558" x1="155.318" y1="127.434" x2="151.686" y2="217.215" gradientUnits="userSpaceOnUse">
<stop stop-color="#CCE6E8"/>
<stop offset="1" stop-color="white"/>
</linearGradient>
<linearGradient id="paint3_linear_6821_4558" x1="117.456" y1="127.602" x2="117.671" y2="250.746" gradientUnits="userSpaceOnUse">
<stop stop-color="white"/>
<stop offset="1" stop-color="#CCE6E8"/>
</linearGradient>
<linearGradient id="paint4_linear_6821_4558" x1="290.572" y1="129.13" x2="290.572" y2="257.419" gradientUnits="userSpaceOnUse">
<stop stop-color="#18BABD"/>
<stop offset="1" stop-color="#52A9B0"/>
</linearGradient>
<linearGradient id="paint5_linear_6821_4558" x1="298.047" y1="144.302" x2="301.597" y2="168.112" gradientUnits="userSpaceOnUse">
<stop stop-color="#FFEC9C"/>
<stop offset="1" stop-color="#CFAA74"/>
</linearGradient>
<clipPath id="clip0_6821_4558">
<rect width="403" height="272" fill="white"/>
</clipPath>
</defs>
</svg>
