<svg width="20" height="20" viewBox="0 0 20 20" fill="none" xmlns="http://www.w3.org/2000/svg">
<path d="M17.5211 11.0318C17.3003 11.0318 17.0694 10.9614 16.8487 10.9111C16.4015 10.8124 15.9621 10.6812 15.5339 10.5185C15.0683 10.3486 14.5566 10.3575 14.0971 10.5433C13.6376 10.7291 13.2629 11.0788 13.045 11.525L12.8242 11.978C11.8468 11.4324 10.9486 10.7551 10.1546 9.96493C9.36675 9.16862 8.6914 8.26778 8.14742 7.28757L8.56893 7.00574C9.01389 6.78724 9.36256 6.41142 9.54784 5.95059C9.73312 5.48976 9.74191 4.9765 9.57253 4.50956C9.41223 4.07951 9.28146 3.63896 9.18113 3.19101C9.13095 2.96957 9.0908 2.73807 9.0607 2.50657C8.93882 1.79759 8.56855 1.15555 8.01657 0.69607C7.46458 0.236588 6.76716 -0.0101396 6.04989 0.000319374H3.03908C2.60656 -0.00375357 2.17824 0.0856863 1.78328 0.26255C1.38832 0.439414 1.036 0.699549 0.750291 1.02525C0.464586 1.35094 0.252207 1.73456 0.127613 2.14997C0.00301953 2.56539 -0.0308643 3.00285 0.0282687 3.43257C0.562926 7.6493 2.48311 11.5672 5.48551 14.5674C8.48792 17.5676 12.4014 19.4791 16.6078 20H16.9892C17.7292 20.0011 18.4438 19.7288 18.9964 19.235C19.3139 18.9502 19.5675 18.6011 19.7405 18.2107C19.9135 17.8203 20.0019 17.3976 20 16.9704V13.9508C19.9877 13.2516 19.7338 12.5784 19.2817 12.0461C18.8296 11.5138 18.2073 11.1553 17.5211 11.0318ZM18.0229 17.071C18.0227 17.2139 17.9922 17.3552 17.9333 17.4853C17.8745 17.6155 17.7887 17.7316 17.6816 17.8259C17.5698 17.9235 17.4387 17.9964 17.2969 18.0398C17.1551 18.0831 17.0058 18.096 16.8587 18.0775C13.1001 17.5942 9.6089 15.8697 6.93578 13.176C4.26267 10.4824 2.55977 6.97287 2.09569 3.20107C2.0803 3.05366 2.09457 2.90465 2.13767 2.76288C2.18077 2.6211 2.25182 2.48945 2.34659 2.37572C2.44064 2.26836 2.55641 2.18231 2.68619 2.1233C2.81597 2.0643 2.9568 2.03368 3.09929 2.0335H6.1101C6.34349 2.02829 6.57138 2.10484 6.75456 2.24998C6.93774 2.39511 7.06474 2.59974 7.11371 2.82866C7.15385 3.10378 7.20403 3.37554 7.26425 3.64394C7.37976 4.17464 7.53407 4.69608 7.7259 5.20406L6.32086 5.8583C6.20073 5.91358 6.09266 5.99212 6.00288 6.0894C5.91309 6.18668 5.84335 6.30079 5.79765 6.42517C5.75196 6.54956 5.73121 6.68177 5.73661 6.81422C5.74201 6.94667 5.77343 7.07675 5.82909 7.19698C7.27419 10.2994 9.76095 12.7934 12.8543 14.2427C13.0987 14.3433 13.3727 14.3433 13.6171 14.2427C13.7422 14.1978 13.8572 14.1284 13.9554 14.0385C14.0536 13.9487 14.1331 13.8402 14.1891 13.7193L14.8113 12.3101C15.3304 12.4955 15.8599 12.6501 16.397 12.7731C16.6647 12.8335 16.9356 12.8839 17.21 12.9241C17.4382 12.9732 17.6422 13.1006 17.787 13.2843C17.9317 13.468 18.008 13.6966 18.0028 13.9306L18.0229 17.071Z" fill="#8097AA"/>
</svg>
