<svg width="18" height="19" viewBox="0 0 18 19" fill="none" xmlns="http://www.w3.org/2000/svg">
<path d="M14.8492 11.75C14.1049 11.75 13.4992 11.1443 13.4992 10.4C13.4992 9.9032 13.096 9.5 12.5992 9.5C12.1024 9.5 11.6992 9.9032 11.6992 10.4C11.6992 11.1443 11.0935 11.75 10.3492 11.75C9.85242 11.75 9.44922 12.1532 9.44922 12.65C9.44922 13.1468 9.85242 13.55 10.3492 13.55C11.0935 13.55 11.6992 14.1557 11.6992 14.9C11.6992 15.3968 12.1024 15.8 12.5992 15.8C13.096 15.8 13.4992 15.3968 13.4992 14.9C13.4992 14.1557 14.1049 13.55 14.8492 13.55C15.346 13.55 15.7492 13.1468 15.7492 12.65C15.7492 12.1532 15.346 11.75 14.8492 11.75Z" fill="white"/>
<path d="M9.19283 6.09256C8.2359 6.09256 7.45714 5.31381 7.45714 4.35685C7.45714 3.71811 6.93874 3.19971 6.3 3.19971C5.66125 3.19971 5.14286 3.71811 5.14286 4.35685C5.14286 5.31381 4.3641 6.09256 3.40715 6.09256C2.7684 6.09256 2.25 6.61096 2.25 7.24971C2.25 7.88845 2.7684 8.40687 3.40715 8.40687C4.3641 8.40687 5.14286 9.1856 5.14286 10.1426C5.14286 10.7813 5.66125 11.2997 6.3 11.2997C6.93874 11.2997 7.45714 10.7813 7.45714 10.1426C7.45714 9.1856 8.2359 8.40687 9.19283 8.40687C9.8316 8.40687 10.35 7.88845 10.35 7.24971C10.35 6.61096 9.8316 6.09256 9.19283 6.09256Z" fill="white"/>
</svg>
