<svg width="16" height="16" viewBox="0 0 16 16" fill="none" xmlns="http://www.w3.org/2000/svg">
<g clip-path="url(#clip0_6821_3063)">
<path d="M1.33398 10.0002C1.42954 10.2851 1.54065 10.5618 1.66732 10.8302M2.75065 12.4976C2.96221 12.7434 3.18798 12.9734 3.42798 13.1876M6.00065 14.6669C5.70382 14.5704 5.41345 14.4551 5.13132 14.3216M8.00065 9.00024C8.19843 9.00024 8.39177 8.9416 8.55622 8.83171C8.72067 8.72183 8.84884 8.56565 8.92453 8.38293C9.00022 8.2002 9.02002 7.99914 8.98144 7.80515C8.94285 7.61117 8.84761 7.43299 8.70776 7.29314C8.56791 7.15329 8.38972 7.05804 8.19574 7.01946C8.00176 6.98087 7.80069 7.00068 7.61797 7.07637C7.43524 7.15205 7.27906 7.28023 7.16918 7.44467C7.0593 7.60912 7.00065 7.80246 7.00065 8.00024M8.00065 9.00024C7.73543 9.00024 7.48108 8.89489 7.29354 8.70735C7.10601 8.51982 7.00065 8.26546 7.00065 8.00024M8.00065 9.00024V10.6669M7.00065 8.00024H4.00065" stroke="#C81E3A" stroke-linecap="round" stroke-linejoin="round"/>
<path d="M8.00065 14.6668C11.6827 14.6668 14.6673 11.6822 14.6673 8.00016C14.6673 4.31816 11.6827 1.3335 8.00065 1.3335C4.31865 1.3335 1.33398 4.31816 1.33398 8.00016" stroke="#C81E3A" stroke-linecap="round" stroke-linejoin="round"/>
</g>
<defs>
<clipPath id="clip0_6821_3063">
<rect width="16" height="16" fill="white"/>
</clipPath>
</defs>
</svg>
