<svg width="140" height="140" viewBox="0 0 140 140" fill="none" xmlns="http://www.w3.org/2000/svg" class="cmp-icon__image"><path d="M117.068 20.9115L31.7262 13.8555L22.9358 120.015L108.277 127.071L117.068 20.9115Z" stroke="#B1AFAC" stroke-width="2" stroke-linecap="square" stroke-linejoin="round"></path> <path d="M31.7278 13.8425L109.861 6.93945L109.212 15.1385" stroke="#B1AFAC" stroke-width="2" stroke-linecap="square" stroke-linejoin="round"></path> <path d="M70.9681 82.5437C83.6026 82.5437 93.8449 72.309 93.8449 59.684C93.8449 47.0589 83.6026 36.8242 70.9681 36.8242C58.3336 36.8242 48.0912 47.0589 48.0912 59.684C48.0912 72.309 58.3336 82.5437 70.9681 82.5437Z" stroke="#00627B" stroke-width="2" stroke-linecap="square" stroke-linejoin="round"></path> <path d="M72.8291 36.8994L69.1071 82.4686" stroke="#00627B" stroke-width="2" stroke-linecap="square" stroke-linejoin="round"></path> <path d="M83.4366 60.7104C84.4674 48.1274 79.7209 37.4703 72.8349 36.907C65.9489 36.3437 59.5311 46.0876 58.5002 58.6706C57.4693 71.2536 62.2159 81.9107 69.1018 82.474C75.9878 83.0373 82.4057 73.2934 83.4366 60.7104Z" stroke="#00627B" stroke-width="2" stroke-linecap="square" stroke-linejoin="round"></path> <path d="M52.2643 46.5254C56.0521 49.0518 63.2422 51.118 71.6166 51.8036C79.991 52.4892 87.4255 51.6064 91.5704 49.7374" stroke="#00627B" stroke-width="2" stroke-linecap="square" stroke-linejoin="round"></path> <path d="M89.6624 72.8508C85.8841 70.3244 78.6752 68.2394 70.2914 67.5538C61.9358 66.8682 54.5107 67.7416 50.3658 69.6106" stroke="#00627B" stroke-width="2" stroke-linecap="square" stroke-linejoin="round"></path> <path d="M44.3505 91.9072L91.9934 95.8048" stroke="#00627B" stroke-width="2" stroke-linecap="square" stroke-linejoin="round"></path> <path d="M53.1008 102.21L81.6828 104.549" stroke="#00627B" stroke-width="2" stroke-linecap="square" stroke-linejoin="round"></path></svg>