<svg width="20" height="20" viewBox="0 0 20 20" fill="none" xmlns="http://www.w3.org/2000/svg">
<g clip-path="url(#clip0_6927_4949)">
<path fill-rule="evenodd" clip-rule="evenodd" d="M8.29753 3.84904C7.70557 5.38151 7.32045 7.55737 7.32045 10.0029C7.32045 12.4485 7.70557 14.6243 8.29867 16.1568C8.5958 16.9259 8.92949 17.4893 9.25633 17.8458C9.58316 18.2024 9.83458 18.2858 10.0003 18.2858C10.166 18.2858 10.4185 18.2024 10.7454 17.8458C11.0711 17.4893 11.4048 16.9259 11.7019 16.1568C12.2961 14.6243 12.6801 12.4485 12.6801 10.0029C12.6801 7.55737 12.295 5.38151 11.7019 3.84904C11.4048 3.07995 11.0711 2.51655 10.7442 2.16C10.4174 1.80346 10.166 1.72003 10.0003 1.72003C9.83458 1.72003 9.58202 1.80346 9.25633 2.16C8.93063 2.51655 8.59466 3.07995 8.29753 3.84904ZM7.99241 1.00351C8.51238 0.43326 9.19005 0.00585938 10.0014 0.00585938C10.8128 0.00585938 11.4905 0.43326 12.0104 1.00237C12.5304 1.57033 12.9589 2.34514 13.3018 3.23079C13.9886 5.00553 14.3954 7.40081 14.3954 10.0029C14.3954 12.605 13.9886 15.0003 13.3018 16.7751C12.9589 17.6596 12.5304 18.4355 12.0104 19.0035C11.4905 19.5714 10.8128 20 10.0014 20C9.19005 20 8.51238 19.5714 7.99241 19.0035C7.47244 18.4355 7.0439 17.6607 6.70106 16.7751C6.01425 15.0003 5.60742 12.605 5.60742 10.0029C5.60742 7.40081 6.01425 5.00553 6.70106 3.23079C7.0439 2.34514 7.47244 1.57147 7.99241 1.00351Z" fill="#8097AA"/>
<path fill-rule="evenodd" clip-rule="evenodd" d="M10.0013 1.71088C8.91328 1.71088 7.83591 1.92518 6.8307 2.34155C5.8255 2.75792 4.91215 3.3682 4.1428 4.13755C3.37345 4.9069 2.76317 5.82025 2.3468 6.82545C1.93043 7.83066 1.71613 8.90803 1.71613 9.99605C1.71613 11.0841 1.93043 12.1614 2.3468 13.1667C2.76317 14.1719 3.37345 15.0852 4.1428 15.8546C4.91215 16.6239 5.8255 17.2342 6.8307 17.6506C7.83591 18.0669 8.91328 18.2812 10.0013 18.2812C12.1987 18.2812 14.306 17.4083 15.8598 15.8546C17.4136 14.3008 18.2865 12.1934 18.2865 9.99605C18.2865 7.79869 17.4136 5.69132 15.8598 4.13755C14.306 2.58378 12.1987 1.71088 10.0013 1.71088ZM0.00195312 9.99605C0.00195312 7.34406 1.05545 4.80069 2.93069 2.92545C4.80594 1.0502 7.34931 -0.0032959 10.0013 -0.0032959C12.6533 -0.0032959 15.1967 1.0502 17.0719 2.92545C18.9472 4.80069 20.0007 7.34406 20.0007 9.99605C20.0007 12.648 18.9472 15.1914 17.0719 17.0667C15.1967 18.9419 12.6533 19.9954 10.0013 19.9954C7.34931 19.9954 4.80594 18.9419 2.93069 17.0667C1.05545 15.1914 0.00195313 12.648 0.00195312 9.99605Z" fill="#8097AA"/>
<path fill-rule="evenodd" clip-rule="evenodd" d="M0.00195312 9.98917C0.00195312 9.76185 0.092253 9.54385 0.252988 9.38312C0.413723 9.22238 0.631727 9.13208 0.85904 9.13208L19.1436 9.14579C19.3709 9.14579 19.5889 9.23609 19.7496 9.39683C19.9104 9.55756 20.0007 9.77557 20.0007 10.0029C20.0007 10.2302 19.9104 10.4482 19.7496 10.6089C19.5889 10.7697 19.3709 10.86 19.1436 10.86L0.85904 10.8474C0.631727 10.8474 0.413723 10.7571 0.252988 10.5964C0.092253 10.4356 0.00195313 10.2176 0.00195312 9.99031" fill="#8097AA"/>
</g>
<defs>
<clipPath id="clip0_6927_4949">
<rect width="20" height="20" fill="white"/>
</clipPath>
</defs>
</svg>
